<?xml version="1.0" encoding="UTF-8" standalone="no"?>
<!-- Created with Inkscape (http://www.inkscape.org/) -->

<svg
   xmlns:dc="http://purl.org/dc/elements/1.1/"
   xmlns:cc="http://creativecommons.org/ns#"
   xmlns:rdf="http://www.w3.org/1999/02/22-rdf-syntax-ns#"
   xmlns:svg="http://www.w3.org/2000/svg"
   xmlns="http://www.w3.org/2000/svg"
   xmlns:sodipodi="http://sodipodi.sourceforge.net/DTD/sodipodi-0.dtd"
   xmlns:inkscape="http://www.inkscape.org/namespaces/inkscape"
   id="svg2"
   version="1.1"
   inkscape:version="0.47pre4 r22446"
   width="85.300079"
   height="85.300072"
   sodipodi:docname="Aon.svg">
  <metadata
     id="metadata8">
    <rdf:RDF>
      <cc:Work
         rdf:about="">
        <dc:format>image/svg+xml</dc:format>
        <dc:type
           rdf:resource="http://purl.org/dc/dcmitype/StillImage" />
        <dc:title />
      </cc:Work>
    </rdf:RDF>
  </metadata>
  <defs
     id="defs6">
    <inkscape:perspective
       sodipodi:type="inkscape:persp3d"
       inkscape:vp_x="0 : 0.5 : 1"
       inkscape:vp_y="0 : 1000 : 0"
       inkscape:vp_z="1 : 0.5 : 1"
       inkscape:persp3d-origin="0.5 : 0.33333333 : 1"
       id="perspective10" />
  </defs>
  <sodipodi:namedview
     pagecolor="#ffffff"
     bordercolor="#666666"
     borderopacity="1"
     objecttolerance="10"
     gridtolerance="10"
     guidetolerance="10"
     inkscape:pageopacity="0"
     inkscape:pageshadow="2"
     inkscape:window-width="1680"
     inkscape:window-height="972"
     id="namedview4"
     showgrid="false"
     inkscape:zoom="5"
     inkscape:cx="-65.555194"
     inkscape:cy="45.605035"
     inkscape:window-x="0"
     inkscape:window-y="27"
     inkscape:window-maximized="1"
     inkscape:current-layer="svg2" />
  <path
     sodipodi:type="arc"
     style="fill:#ff0000;fill-opacity:1;fill-rule:evenodd;stroke:#ff0000;stroke-width:1.92308485999999990;stroke-linecap:square;stroke-miterlimit:4;stroke-opacity:1;stroke-dasharray:none"
     id="path2822"
     sodipodi:cx="34.21833"
     sodipodi:cy="38.994312"
     sodipodi:rx="24.901979"
     sodipodi:ry="20.278828"
     d="m 59.12031,38.994312 a 24.901979,20.278828 0 1 1 -49.8039591,0 24.901979,20.278828 0 1 1 49.8039591,0 z"
     transform="matrix(1.6402244,-0.09464251,0.10381647,2.0134729,-17.523953,-32.625445)" />
  <path
     style="fill:#000000"
     d="m 14.561205,66.599356 c -2.570927,-1.033387 -3.021395,-2.968838 -0.690983,-2.968838 0.916989,0 1.267381,0.471877 0.850847,1.145843 -0.498386,0.806406 0.0766,0.948879 1.940983,0.480948 1.994706,-0.500639 2.649153,-0.289628 2.649153,0.854157 0,1.69342 -1.394465,1.83665 -4.75,0.48789 z m 37.749999,-1.362449 c 0,-0.765826 0.675,-1.651433 1.5,-1.968015 0.825,-0.316583 1.5,-1.741285 1.5,-3.166006 0,-1.424721 0.411565,-2.336041 0.91459,-2.025154 0.503024,0.310886 1.142498,-5.7e-5 1.421052,-0.690983 0.278555,-0.690927 0.548134,0.09377 0.599065,1.743769 0.05093,1.65 0.333409,3.9 0.627727,5 0.453842,1.696208 -0.0039,2.037883 -3.013654,2.2494 -2.485344,0.174665 -3.54878,-0.167853 -3.54878,-1.143011 z m -0.83998,-5.606389 c 0.317794,-8.509236 -0.115368,-11.000391 -1.910019,-10.984687 -1.507586,0.01319 -1.542217,0.159892 -0.25,1.059044 2.265837,1.576618 -6.392866,0.07523 -10.029858,-1.739139 -2.734309,-1.364053 -3.192242,-1.313258 -5.965891,0.661755 -1.652338,1.176568 -3.004251,2.558573 -3.004251,3.071121 0,0.512548 -0.697347,0.931906 -1.54966,0.931906 -0.852313,0 -2.963012,0.730873 -4.690442,1.624161 -2.910098,1.504871 -3.009267,1.720327 -1.350202,2.933466 0.984819,0.720117 1.526025,1.737361 1.202682,2.260542 -0.780495,1.262867 -6.559797,2.075926 -7.215423,1.0151 -0.283244,-0.458298 0.711569,-0.833269 2.210695,-0.833269 3.720485,0 2.366094,-1.10608 -1.488593,-1.215678 -2.356908,-0.06701 -2.783861,-0.347326 -1.806485,-1.186037 1.660038,-1.42452 3.360863,-6.790796 4.179383,-13.18638 0.604602,-4.72411 0.463808,-5.21087 -1.968126,-6.804334 -3.419403,-2.24048 -6.515386,-7.396059 -6.520091,-10.857571 -0.0031,-2.26204 0.436482,-2.75 2.47721,-2.75 1.786271,0 2.649975,0.673459 3.084607,2.40517 0.332013,1.322844 1.620747,3.360675 2.863854,4.528514 2.189492,2.056921 2.63261,2.088885 14.165393,1.021816 6.547859,-0.60584 13.010412,-1.631171 14.361229,-2.278513 1.350817,-0.647343 3.674311,-2.973731 5.16332,-5.169752 4.427394,-6.529608 10.983796,-8.285689 15.025688,-4.024512 1.295229,1.365498 2.931584,2.490498 3.636346,2.5 1.870528,0.02522 2.441912,2.299762 1.319396,5.252202 -0.675894,1.777736 -2.009941,2.800291 -4.290815,3.288935 -3.676335,0.787602 -7.185823,3.886202 -6.525187,5.761222 0.235432,0.668205 0.0093,2.339918 -0.502617,3.714918 -0.511871,1.375 -1.130277,3.85 -1.374236,5.5 -0.644647,4.360038 -2.186023,10.209812 -2.305566,8.75 -0.0563,-0.6875 -0.749788,-1.25 -1.541088,-1.25 -0.943795,0 -1.698328,1.634032 -2.193367,4.75 -0.455657,2.868081 -0.92953,3.957613 -1.196065,2.75 -0.441425,-2 -0.441425,-2 -1.29198,0 -0.67054,1.576712 -0.82289,1.259245 -0.719841,-1.5 z M 19.498705,56.947407 c -0.721875,-0.288871 -1.584375,-0.253347 -1.916667,0.07895 -0.332291,0.332292 0.258334,0.568641 1.3125,0.52522 1.164943,-0.04798 1.4019,-0.284941 0.604167,-0.604167 z M 59.625633,44.380518 c 0.563985,-3.777835 -0.811561,-5.224029 -2.00664,-2.109701 -0.568675,1.481944 -0.758727,1.463492 -1.968616,-0.19113 -1.736166,-2.374348 -1.729983,-0.431071 0.0093,2.92139 0.741657,1.429545 1.703264,2.268484 2.136905,1.864307 0.433641,-0.404176 0.586205,-0.08799 0.339033,0.702634 -0.716339,2.291337 -2.595796,2.358143 -3.306934,0.117547 -0.358741,-1.130276 -1.331154,-2.055047 -2.160923,-2.055047 -1.156915,0 -0.966335,0.675885 0.817388,2.898848 2.157971,2.68937 2.443651,2.779698 3.953357,1.25 0.895015,-0.906866 1.879223,-3.336348 2.18713,-5.398848 z m -34.224618,3.503247 c 3.254758,-3.071969 3.640463,-4.253247 1.388751,-4.253247 -0.836791,0 -2.065132,1.2375 -2.729645,2.75 -0.664514,1.5125 -1.667367,3.080609 -2.228562,3.484687 -0.561195,0.404078 -0.64244,0.741578 -0.180544,0.75 0.461895,0.0084 2.149395,-1.220726 3.75,-2.73144 z m 23.353331,-3.39076 c 1.352093,-1.17563 2.74176,-3.427857 3.088148,-5.00495 0.530726,-2.416378 1.02969,-2.794926 3.171948,-2.406461 1.398183,0.253539 2.224439,0.143267 1.836123,-0.245048 -0.388315,-0.388315 -1.193528,-0.706028 -1.789361,-0.706028 -0.595833,0 -1.291713,-0.625138 -1.546399,-1.389196 -0.281074,-0.843224 -0.01907,-1.114789 0.666667,-0.690983 0.621353,0.384017 1.136623,0.109155 1.145045,-0.610804 0.01113,-0.951189 0.280297,-0.898983 0.984687,0.190983 0.857447,1.326804 0.971143,1.323599 0.984687,-0.02776 0.0084,-0.840267 -0.884687,-2.298362 -1.984687,-3.240212 -1.1,-0.941849 -2,-1.284921 -2,-0.762382 0,0.522539 -1.8,1.489364 -3.999999,2.1485 -2.2,0.659136 -3.999386,1.4647 -3.998637,1.790142 7.5e-4,0.325441 -2.580582,0.4314 -5.736294,0.235463 -5.669679,-0.352029 -16.162322,1.363968 -16.374696,2.677965 -0.50469,3.122606 -0.548178,7.169422 -0.07193,6.693171 0.324319,-0.324319 0.610344,-1.810344 0.635612,-3.302279 0.03479,-2.054054 0.605549,-2.791938 2.350984,-3.039372 2.934505,-0.415996 5.194961,1.444605 5.194961,4.276016 0,1.851078 0.453582,2.137791 2.83018,1.78898 1.732551,-0.254284 4.15649,0.393181 6.25,1.669455 4.28867,2.614517 5.310371,2.608995 8.362961,-0.0452 z M 32.390155,38.213851 c -0.04342,-1.054166 0.192925,-1.644791 0.525217,-1.3125 0.332291,0.332292 0.367818,1.194792 0.07895,1.916667 -0.319226,0.797733 -0.556183,0.560776 -0.604167,-0.604167 z m 6.428129,0.428121 c -0.350339,-0.56686 0.05106,-0.734507 0.940983,-0.393011 1.732417,0.664791 2.049387,1.381557 0.610955,1.381557 -0.517541,0 -1.215913,-0.444846 -1.551938,-0.988546 z m 1.934051,-1.479654 c -1.067622,-0.807508 -1.43373,-1.482505 -0.813575,-1.499997 0.620156,-0.01749 1.687756,0.643197 2.372445,1.468197 1.580792,1.904738 0.934796,1.917918 -1.55887,0.0318 z m -12.778849,2.2182 c -0.277413,-0.6875 -0.504386,-0.125 -0.504386,1.25 0,1.375 0.226973,1.9375 0.504386,1.25 0.277412,-0.6875 0.277412,-1.8125 0,-2.5 z m 30.337718,-0.309017 c 0,-0.242541 -0.45,-0.440983 -1,-0.440983 -0.55,0 -1,0.476558 -1,1.059017 0,0.582459 0.45,0.780902 1,0.440983 0.55,-0.339919 1,-0.816476 1,-1.059017 z m 2.345077,-3.984111 c -0.325685,-0.848721 -0.806623,-1.32866 -1.068751,-1.066531 -0.262128,0.262128 -0.179978,0.956536 0.182555,1.543128 0.98605,1.595461 1.56238,1.28551 0.886196,-0.476597 z M 20.311205,34.252963 c 0,-0.207656 -0.7875,-0.995156 -1.75,-1.75 -1.586056,-1.243871 -1.621426,-1.208501 -0.377555,0.377555 1.306369,1.665748 2.127555,2.195479 2.127555,1.372445 z m 41.604163,-4.351612 c -0.332292,-0.332291 -0.568638,0.258334 -0.525217,1.3125 0.04798,1.164943 0.284941,1.4019 0.604167,0.604167 0.288871,-0.721875 0.253344,-1.584375 -0.07895,-1.916667 z m -0.721591,-2.68166 c -0.768914,-0.599045 -1.25075,-2.101673 -1.070748,-3.339173 0.220607,-1.516657 -0.184287,-2.25 -1.242274,-2.25 -0.863253,0 -1.569551,0.476558 -1.569551,1.059017 0,0.582459 0.45,0.780902 1,0.440983 0.55,-0.339919 1,0.110081 1,1 0,0.889919 -0.453415,1.337808 -1.007588,0.99531 -0.601571,-0.371791 -0.551421,0.378454 0.124455,1.861841 0.733194,1.609184 1.666117,2.27962 2.647887,1.90288 1.287601,-0.494099 1.305341,-0.745683 0.117819,-1.670858 z m 7.600818,-1.023149 c -0.240518,-3.961563 -2.012697,-6.030758 -5.266331,-6.148964 -2.640709,-0.09594 -1.679225,1.215255 1.28294,1.74957 1.472981,0.265696 2,1.14768 2,3.347065 0,2.343487 0.908497,4.281465 2.095939,4.470992 0.05277,0.0084 0.0021,-1.529976 -0.112548,-3.418663 z m -5.483391,-0.625041 c 0,-0.582459 -0.45,-0.780902 -1,-0.440983 -0.55,0.339919 -1,0.816476 -1,1.059017 0,0.242541 0.45,0.440983 1,0.440983 0.55,0 1,-0.476558 1,-1.059017 z"
     id="path2820"
     sodipodi:nodetypes="cssssccsssssssccssssssssssssssssssssssssssssssssssccssccsssssssssccssssccsssssssssssssssssssssccssccssccssccssccsssccssccssccssccssssssssccssssccsssc" />
</svg>
