<?xml version="1.0" encoding="UTF-8" standalone="no"?>
<!-- Created with Inkscape (http://www.inkscape.org/) -->

<svg
   xmlns:dc="http://purl.org/dc/elements/1.1/"
   xmlns:cc="http://creativecommons.org/ns#"
   xmlns:rdf="http://www.w3.org/1999/02/22-rdf-syntax-ns#"
   xmlns:svg="http://www.w3.org/2000/svg"
   xmlns="http://www.w3.org/2000/svg"
   xmlns:sodipodi="http://sodipodi.sourceforge.net/DTD/sodipodi-0.dtd"
   xmlns:inkscape="http://www.inkscape.org/namespaces/inkscape"
   id="svg2"
   version="1.1"
   inkscape:version="0.47pre4 r22446"
   width="85.300278"
   height="85.476982"
   sodipodi:docname="Bon.svg">
  <metadata
     id="metadata8">
    <rdf:RDF>
      <cc:Work
         rdf:about="">
        <dc:format>image/svg+xml</dc:format>
        <dc:type
           rdf:resource="http://purl.org/dc/dcmitype/StillImage" />
        <dc:title></dc:title>
      </cc:Work>
    </rdf:RDF>
  </metadata>
  <defs
     id="defs6">
    <inkscape:perspective
       sodipodi:type="inkscape:persp3d"
       inkscape:vp_x="0 : 0.5 : 1"
       inkscape:vp_y="0 : 1000 : 0"
       inkscape:vp_z="1 : 0.5 : 1"
       inkscape:persp3d-origin="0.5 : 0.33333333 : 1"
       id="perspective10" />
  </defs>
  <sodipodi:namedview
     pagecolor="#ffffff"
     bordercolor="#666666"
     borderopacity="1"
     objecttolerance="10"
     gridtolerance="10"
     guidetolerance="10"
     inkscape:pageopacity="0"
     inkscape:pageshadow="2"
     inkscape:window-width="1680"
     inkscape:window-height="972"
     id="namedview4"
     showgrid="false"
     inkscape:zoom="5"
     inkscape:cx="-13.75586"
     inkscape:cy="42.738487"
     inkscape:window-x="0"
     inkscape:window-y="27"
     inkscape:window-maximized="1"
     inkscape:current-layer="svg2" />
  <path
     sodipodi:type="arc"
     style="opacity:0.77999998000000004;fill:#00ff00;fill-opacity:1;fill-rule:evenodd;stroke:#00ff00;stroke-width:25.73123932000000025;stroke-linecap:square;stroke-miterlimit:4;stroke-opacity:1;stroke-dasharray:none"
     id="path3592"
     sodipodi:cx="312.31781"
     sodipodi:cy="248.04662"
     sodipodi:rx="344.4534"
     sodipodi:ry="284.19916"
     d="m 656.77121,248.04662 a 344.4534,284.19916 0 1 1 -688.9068,0 344.4534,284.19916 0 1 1 688.9068,0 z"
     transform="matrix(0.11892899,0,0,0.14414362,5.5063581,7.0726447)" />
  <path
     style="fill:#000000;stroke:#000000;stroke-width:0.5;stroke-miterlimit:4;stroke-opacity:1;stroke-dasharray:none"
     d="m 27.751555,71.076818 c 0,-0.196686 0.07192,-0.430222 0.159812,-0.518969 0.0879,-0.08875 0.238372,-0.339947 0.334391,-0.558219 0.09602,-0.218272 0.21529,-0.396859 0.265051,-0.396859 0.04976,0 0.170667,-0.192324 0.268678,-0.427386 0.09801,-0.235063 0.23148,-0.427387 0.296597,-0.427387 0.06511,0 0.154392,-0.164243 0.198391,-0.364984 0.04848,-0.221178 0.220334,-0.448056 0.436181,-0.575825 0.195901,-0.115962 0.356185,-0.245122 0.356185,-0.287021 0,-0.0419 0.137089,-0.138774 0.304643,-0.215276 0.167553,-0.0765 0.304643,-0.216815 0.304643,-0.311811 0,-0.095 0.07708,-0.20236 0.171294,-0.238588 0.09421,-0.03623 0.208242,-0.234431 0.253397,-0.440451 0.04516,-0.20602 0.132581,-0.374582 0.194277,-0.374582 0.0617,0 0.112175,-0.384648 0.112175,-0.854773 0,-0.470125 -0.05031,-0.854772 -0.111798,-0.854772 -0.06149,0 -0.181649,-0.494547 -0.267022,-1.098994 -0.08537,-0.604446 -0.191584,-1.098993 -0.236025,-1.098993 -0.04444,0 -0.180111,-0.686871 -0.301489,-1.526379 -0.121378,-0.839509 -0.266453,-1.52638 -0.322391,-1.52638 -0.05594,0 -0.102544,-0.151112 -0.10357,-0.335804 -0.0027,-0.490331 -0.11888,-0.601413 -0.729277,-0.697416 -0.787652,-0.123882 -1.462286,-0.332154 -1.462286,-0.451433 0,-0.05653 -0.403085,-0.102782 -0.895745,-0.102782 -0.856303,0 -1.663255,-0.171625 -1.663255,-0.353746 0,-0.0471 -0.185887,-0.152991 -0.413081,-0.235317 -0.227195,-0.08232 -0.448928,-0.244476 -0.492739,-0.360334 -0.151275,-0.400042 -0.37085,-0.760148 -0.463505,-0.760148 -0.05113,0 -0.09296,-0.329698 -0.09296,-0.732662 0,-0.732663 0,-0.732663 -0.365571,-0.732663 -0.201064,0 -0.365572,-0.04391 -0.365572,-0.09758 0,-0.05367 -0.197325,-0.169083 -0.438501,-0.256473 -0.473485,-0.17157 -1.389356,-1.034577 -1.389356,-1.309162 0,-0.09264 -0.05484,-0.168441 -0.121857,-0.168441 -0.0677,0 -0.121857,-0.325628 -0.121857,-0.732662 0,-0.700099 -0.01354,-0.732663 -0.304643,-0.732663 -0.167554,0 -0.304643,-0.04295 -0.304643,-0.09545 0,-0.0525 -0.250882,-0.169683 -0.557515,-0.260409 -0.373982,-0.110652 -0.591543,-0.254641 -0.66088,-0.43739 -0.05685,-0.14984 -0.185206,-0.303906 -0.285234,-0.34237 -0.265756,-0.102193 -0.483804,-1.340183 -0.417739,-2.371757 0.03838,-0.599272 0.01327,-0.888645 -0.07711,-0.888745 -0.07371,-8.2e-5 -0.291524,-0.135885 -0.484028,-0.301786 -0.192505,-0.165901 -0.445024,-0.331857 -0.561153,-0.368791 -0.283175,-0.09006 -0.612054,-1.1479 -0.612054,-1.968669 l 0,-0.657585 -0.479496,0 c -0.606139,0 -1.022799,-0.158287 -1.442011,-0.547808 -0.181697,-0.168831 -0.359577,-0.306964 -0.395287,-0.306964 -0.03571,0 -0.168286,-0.192324 -0.294613,-0.427387 -0.126327,-0.235062 -0.275886,-0.427386 -0.332353,-0.427386 -0.05647,0 -0.102669,-0.467072 -0.102669,-1.037938 0,-0.610552 0.05018,-1.037938 0.121858,-1.037938 0.06702,0 0.121857,-0.08243 0.121857,-0.183166 0,-0.100741 -0.05295,-0.183165 -0.117656,-0.183165 -0.184291,0 -0.820564,-0.668842 -0.912547,-0.959254 -0.04561,-0.144017 -0.127566,-0.26185 -0.182115,-0.26185 -0.144904,0 -0.371825,-0.997705 -0.371825,-1.634804 l 0,-0.549775 -1.688045,0.07234 C 9.1594936,35.808269 9.0023954,35.79524 8.7882485,35.582498 8.659978,35.455071 8.4012643,35.250841 8.2133265,35.128652 7.9245019,34.940872 7.8776685,34.836938 7.9106943,34.457045 L 7.9497673,34.007598 7.364457,33.970118 C 6.9490171,33.94351 6.7570873,33.872632 6.7031313,33.725893 6.6613234,33.612189 6.5682806,33.479948 6.4963702,33.432027 c -0.1712787,-0.114139 -0.1697238,-1.42254 0.00183,-1.535286 0.072913,-0.04792 0.1977815,-0.350921 0.2774858,-0.673332 0.1162285,-0.47016 0.3010578,-0.738866 0.9336804,-1.357394 0.43382,-0.424155 0.7888313,-0.81976 0.7889129,-0.879121 8.17e-5,-0.05936 0.137171,-0.267589 0.3046429,-0.462728 0.167472,-0.195138 0.3044942,-0.392791 0.3044942,-0.43923 0,-0.04644 0.1096715,-0.211148 0.2437143,-0.366022 0.1340429,-0.154874 0.2437813,-0.341869 0.243863,-0.415543 8.16e-5,-0.07367 0.1371709,-0.293612 0.3046429,-0.48875 0.1674714,-0.195139 0.3044944,-0.392791 0.3044944,-0.43923 0,-0.04644 0.113878,-0.216008 0.253062,-0.376823 0.182242,-0.210563 0.233394,-0.390926 0.182785,-0.644498 -0.03865,-0.193661 -0.07028,-0.537567 -0.07028,-0.764234 0,-0.284924 -0.05642,-0.412122 -0.182786,-0.412122 -0.100532,0 -0.182785,-0.05495 -0.182785,-0.122111 0,-0.06716 -0.07697,-0.12211 -0.171041,-0.12211 -0.2276076,0 -1.0475307,-0.734423 -1.0475307,-0.938296 0,-0.08838 -0.052259,-0.160697 -0.1161299,-0.160697 -0.1913364,0 -0.3698949,-0.858975 -0.37062,-1.782907 -6.093e-4,-0.831798 0.1725631,-1.636184 0.3523329,-1.636184 0.047002,0 0.1500074,-0.178586 0.2289014,-0.396859 0.093564,-0.258861 0.2821614,-0.457939 0.5423727,-0.572517 0.2194099,-0.09661 0.4713896,-0.247724 0.5599546,-0.335804 0.09665,-0.09612 0.451072,-0.160144 0.88648,-0.160144 0.666602,0 0.735095,-0.02541 0.844296,-0.313226 0.06536,-0.172273 0.118841,-0.419547 0.118841,-0.549496 0,-0.12995 0.09596,-0.334819 0.21325,-0.455266 0.117287,-0.120448 0.322921,-0.369749 0.456964,-0.554003 0.340986,-0.468717 1.321403,-0.739612 2.397545,-0.662454 0.512055,0.03671 0.83167,0.01278 0.83167,-0.06229 0,-0.199143 0.845928,-0.938039 1.166111,-1.018566 0.162896,-0.04097 0.296175,-0.123482 0.296175,-0.183362 0,-0.05988 0.466103,-0.108873 1.035786,-0.108873 0.609286,0 1.035786,0.05028 1.035786,0.12211 0,0.06716 0.102957,0.122111 0.228794,0.122111 0.125835,0 0.297057,0.08242 0.380491,0.183165 0.08344,0.100741 0.220586,0.183166 0.30478,0.183166 0.08419,0 0.221223,0.164849 0.304506,0.366331 0.145349,0.351633 0.365572,0.498753 0.365572,0.244221 0,-0.07123 0.40619,-0.122111 0.974857,-0.122111 0.536171,0 0.974857,0.04391 0.974857,0.09758 0,0.05367 0.184554,0.164454 0.41012,0.246189 0.555246,0.201197 0.849565,0.479871 1.120035,1.060501 0.325908,0.699639 0.408974,0.754764 1.226636,0.814031 0.71919,0.05213 0.893027,0.133691 1.428417,0.670195 0.547063,0.5482 0.810935,0.996375 0.810935,1.377339 0,0.23393 0.07088,0.252249 0.97605,0.252249 0.825253,0 1.008289,0.03773 1.184725,0.244221 0.114771,0.134321 0.279917,0.24422 0.366991,0.24422 0.08707,0 0.220778,0.137375 0.29712,0.305276 0.07634,0.167902 0.186197,0.305276 0.244119,0.305276 0.05792,0 0.159554,0.14296 0.225848,0.317689 0.09126,0.240541 0.17191,0.294936 0.332091,0.223995 0.467194,-0.206913 2.095264,-0.205128 2.73024,0.003 0.605757,0.198544 1.06378,0.578841 1.072048,0.890119 0.0022,0.08395 0.05519,0.152638 0.117699,0.152638 0.06251,0 0.147565,0.107088 0.189019,0.237975 0.07329,0.231404 0.08159,0.231748 0.300447,0.01243 0.123791,-0.124048 0.395165,-0.262978 0.603053,-0.308732 0.207889,-0.04575 0.377979,-0.133775 0.377979,-0.195599 0,-0.06182 0.356432,-0.112408 0.792072,-0.112408 0.435639,0 0.792071,0.04793 0.792071,0.106504 0,0.05858 0.205634,0.139815 0.456964,0.18053 0.3098,0.05019 0.584269,0.213578 0.85226,0.50735 0.394731,0.432704 0.395773,0.433015 0.731142,0.217911 0.184716,-0.118476 0.412935,-0.289445 0.507152,-0.379931 0.127716,-0.122659 0.502086,-0.154132 1.47132,-0.123694 1.070799,0.03363 1.340014,0.08096 1.526858,0.268469 0.221325,0.22211 0.229085,0.221562 0.319199,-0.02254 0.0508,-0.137603 0.218832,-0.316956 0.37341,-0.398561 0.15458,-0.0816 0.30847,-0.182478 0.341981,-0.224161 0.409672,-0.509583 3.412,-0.500925 3.412,0.0098 0,0.26164 0.220327,0.06104 0.321597,-0.292799 0.06223,-0.21742 0.23677,-0.457075 0.387875,-0.532565 0.151106,-0.07549 0.341177,-0.226698 0.422383,-0.336016 0.0812,-0.109318 0.443017,-0.254311 0.804028,-0.322207 1.40801,-0.264809 2.42723,-0.08197 3.000915,0.53833 l 0.317129,0.3429 0.514932,-0.197063 c 0.672437,-0.257339 2.34872,-0.26345 2.971926,-0.01083 0.252686,0.102426 0.594348,0.335962 0.759248,0.518969 l 0.299817,0.332738 0.393043,-0.387093 c 0.457405,-0.450481 1.293316,-0.611264 2.513522,-0.483462 0.666608,0.06982 0.780279,0.125627 1.213743,0.595905 0.41687,0.452273 0.496568,0.494003 0.620942,0.325124 0.190093,-0.258118 0.616256,-0.47786 0.926748,-0.47786 0.138449,0 0.251725,-0.05495 0.251725,-0.12211 0,-0.06716 0.301596,-0.122111 0.670214,-0.122111 0.368618,0 0.670214,0.04871 0.670214,0.108246 0,0.05954 0.249955,0.145806 0.555456,0.191714 0.354031,0.0532 0.583113,0.15786 0.631726,0.288613 0.04195,0.11283 0.169577,0.27255 0.28362,0.354934 0.114043,0.08238 0.24208,0.288445 0.284525,0.457914 0.08735,0.348764 0.442546,0.413862 0.681816,0.124959 0.08343,-0.100741 0.33691,-0.183165 0.563278,-0.183165 0.226369,0 0.41158,-0.05495 0.41158,-0.122111 0,-0.06716 0.274178,-0.12211 0.609285,-0.12211 0.335108,0 0.609286,0.05495 0.609286,0.12211 0,0.06716 0.158239,0.122111 0.351642,0.122111 0.669976,0 1.45985,0.637557 1.735191,1.400582 0.08556,0.23709 0.199375,0.431073 0.252933,0.431073 0.05356,0 0.09738,0.247274 0.09738,0.549496 l 0,0.549497 0.662282,0 c 0.831863,0 1.211646,0.143855 1.717173,0.650432 0.547478,0.548616 0.788831,1.190171 0.788831,2.096843 l 0,0.763684 0.651847,0.05417 c 0.704361,0.05853 1.018283,0.251915 1.645766,1.013828 0.419664,0.50957 0.470511,2.764885 0.07135,3.164872 -0.09655,0.09675 -0.175537,0.234312 -0.175537,0.305701 0,0.07139 -0.109672,0.198431 -0.243715,0.282316 -0.344753,0.215749 -0.30201,0.481788 0.122966,0.765379 0.208615,0.139209 0.451368,0.467369 0.564563,0.76319 0.10922,0.285433 0.245968,0.518969 0.303884,0.518969 0.05792,0 0.105302,0.494547 0.105302,1.098993 0,0.604446 -0.0462,1.098993 -0.102669,1.098993 -0.05647,0 -0.206026,0.192324 -0.332353,0.427387 -0.126327,0.235062 -0.263522,0.427386 -0.304878,0.427386 -0.04136,0 -0.23452,0.138937 -0.429254,0.308749 l -0.354061,0.308748 0.261201,0.210221 c 0.143661,0.115621 0.298154,0.333857 0.343319,0.484968 0.04516,0.151112 0.133258,0.274749 0.195764,0.274749 0.0625,0 0.113645,0.412122 0.113645,0.915828 0,0.503705 -0.04382,0.915827 -0.09738,0.915827 -0.05356,0 -0.165933,0.189981 -0.249723,0.42218 -0.179008,0.496066 -1.250515,1.653697 -1.530669,1.653697 -0.256832,0 -0.246597,0.296012 0.01945,0.562457 0.174937,0.1752 0.21325,0.435037 0.21325,1.446231 0,1.256725 -0.0045,1.271792 -0.569598,1.898353 -0.112213,0.124424 -0.264941,0.340283 -0.339394,0.479689 -0.07445,0.139405 -0.207302,0.253464 -0.295221,0.253464 -0.253192,0 -0.725119,0.454518 -0.537262,0.517442 0.193829,0.06492 0.226817,2.738982 0.03548,2.875659 -0.06702,0.04787 -0.221175,0.283283 -0.342564,0.52313 -0.146609,0.289676 -0.361397,0.487065 -0.63975,0.587928 -0.230474,0.08351 -0.419043,0.198862 -0.419043,0.256329 0,0.05747 -0.356432,0.142738 -0.792071,0.189488 -0.43564,0.04675 -0.792072,0.133548 -0.792072,0.192885 0,0.05934 0.05484,0.107885 0.121857,0.107885 0.0677,0 0.121858,0.325628 0.121858,0.732662 0,0.402964 -0.04286,0.732662 -0.09525,0.732662 -0.05239,0 -0.169331,0.251403 -0.259869,0.558673 -0.110423,0.374759 -0.254113,0.592773 -0.436483,0.662254 -0.149529,0.05697 -0.301058,0.179801 -0.336733,0.272962 -0.08684,0.226758 -0.899133,0.459877 -1.602439,0.459877 -0.439152,0 -0.645422,0.07008 -0.898546,0.305276 -0.180699,0.167902 -0.4192,0.305276 -0.530001,0.305276 -0.214941,0 -0.34939,0.23879 -0.34939,0.620539 0,0.128828 -0.04465,0.234233 -0.09921,0.234233 -0.05457,0 -0.19898,1.497379 -0.320917,3.327508 -0.206908,3.1054 -0.208419,3.391548 -0.02264,4.286924 0.259244,1.249488 0.259119,2.782359 -2.44e-4,3.463002 -0.109637,0.287679 -0.246726,0.523052 -0.304643,0.523052 -0.05792,0 -0.105301,0.08242 -0.105301,0.183165 0,0.15853 -0.467119,0.183166 -3.472929,0.183166 l -3.472929,0 0,-0.366331 c 0,-0.201483 0.05264,-0.366332 0.116966,-0.366332 0.06433,0 0.182682,-0.219798 0.263003,-0.488441 0.08032,-0.268643 0.194991,-0.488442 0.254823,-0.488442 0.05983,0 0.191314,-0.197925 0.29218,-0.439833 0.100866,-0.241909 0.289994,-0.554493 0.420282,-0.694633 0.130288,-0.140139 0.236889,-0.326861 0.236889,-0.414938 0,-0.08808 0.09596,-0.161363 0.21325,-0.162856 0.468766,-0.006 1.005322,-0.757066 1.005322,-1.407299 0,-0.164742 0.05484,-0.299531 0.121857,-0.299531 0.07269,0 0.121857,-0.468089 0.121857,-1.160048 0,-0.638027 -0.04184,-1.160049 -0.09298,-1.160049 -0.05114,0 -0.196688,-0.659396 -0.323442,-1.465324 -0.126753,-0.805929 -0.276837,-1.465325 -0.333518,-1.465325 -0.05672,0 -0.103096,-0.162264 -0.103096,-0.360586 0,-0.654328 -0.217099,-0.935199 -0.833929,-1.078889 -0.524482,-0.122177 -0.587563,-0.110744 -0.833455,0.151067 -0.37555,0.39986 -1.344669,0.603074 -2.462344,0.516326 -0.510039,-0.03959 -1.037015,-0.103535 -1.171058,-0.142109 -0.158444,-0.04559 -0.364543,0.03535 -0.589059,0.231359 -0.450582,0.393366 -1.402153,0.51602 -2.456596,0.316648 -0.436065,-0.08245 -0.792845,-0.192681 -0.792845,-0.244956 0,-0.05228 -0.147756,-0.132208 -0.328344,-0.177627 -0.252897,-0.06361 -0.373095,-0.02313 -0.523092,0.176137 -0.142241,0.188965 -0.378704,0.277744 -0.877046,0.329284 -0.818599,0.08466 -1.988539,-0.04495 -2.206197,-0.244418 -0.423197,-0.387829 -0.695181,-0.459135 -1.187498,-0.311328 -0.265788,0.0798 -0.483252,0.191339 -0.483252,0.247869 0,0.175579 -1.463369,0.11914 -1.645598,-0.06347 -0.09125,-0.09144 -0.391025,-0.202322 -0.666174,-0.246411 -0.275148,-0.04409 -0.531455,-0.161601 -0.569572,-0.261138 -0.08437,-0.220325 -0.369286,-0.238705 -0.439263,-0.02834 -0.03632,0.109174 -0.414701,0.152638 -1.328823,0.152638 -1.054714,0 -1.315314,-0.03734 -1.4913,-0.213693 -0.117288,-0.117531 -0.264168,-0.213693 -0.326403,-0.213693 -0.06223,0 -0.235561,-0.122663 -0.385172,-0.272585 -0.24886,-0.249376 -0.368104,-0.269342 -1.400639,-0.234513 -1.090352,0.03678 -1.983057,-0.122583 -1.983057,-0.354009 0,-0.166635 -0.706841,-0.498189 -0.786553,-0.368944 -0.03808,0.06175 -0.246828,0.150873 -0.46388,0.198059 -0.217051,0.04718 -0.434925,0.147574 -0.484165,0.223087 -0.04924,0.07551 -0.09093,0.906593 -0.09265,1.846843 -0.0037,2.02486 -0.210844,4.6234 -0.373142,4.680897 -0.145421,0.05152 -0.151692,0.386683 -0.0072,0.386683 0.116334,0 0.221836,0.915081 0.33615,2.915638 0.07087,1.240265 -0.08054,2.212998 -0.344471,2.212998 -0.05795,0 -0.15749,0.137374 -0.221194,0.305276 l -0.115825,0.305276 -3.415016,0 -3.415016,0 0,-0.357609 z m 6.702143,-0.191888 c 0.0637,-0.167902 0.163241,-0.305276 0.221194,-0.305276 0.249783,0 0.418644,-0.97034 0.343386,-1.973229 -0.155761,-2.0757 -0.230044,-2.666965 -0.335062,-2.666965 -0.145058,0 -0.138252,-0.823583 0.0072,-0.875125 0.161749,-0.0573 0.369781,-2.657385 0.371275,-4.640382 0.0013,-1.782442 0.04529,-2.055336 0.330982,-2.055336 0.09999,0 0.367882,-0.08849 0.595319,-0.196637 0.494044,-0.234927 0.892382,-0.158776 1.338976,0.255974 0.416249,0.386569 0.934493,0.4793 2.106221,0.376878 0.896751,-0.07839 0.958684,-0.06728 1.27787,0.229144 0.184493,0.171338 0.383537,0.311524 0.442317,0.311524 0.05878,0 0.202838,0.09616 0.320125,0.213693 0.168178,0.168527 0.422977,0.213693 1.205516,0.213693 0.782539,0 1.037338,-0.04517 1.205516,-0.213693 0.283472,-0.284063 0.644224,-0.270747 0.804686,0.0297 0.08212,0.15376 0.311089,0.272414 0.62175,0.322193 0.270468,0.04334 0.566418,0.153611 0.657665,0.245048 0.178961,0.179333 1.158169,0.232992 1.158169,0.06347 0,-0.120894 0.826509,-0.38566 1.203899,-0.38566 0.266935,0 0.672467,0.190858 0.95428,0.449119 0.214751,0.196803 1.365429,0.327376 1.975223,0.224138 0.297313,-0.05034 0.549098,-0.17599 0.620487,-0.309658 0.06608,-0.123721 0.231053,-0.260225 0.366617,-0.303339 0.240531,-0.0765 0.972351,0.165885 0.972351,0.322053 0,0.04316 0.342724,0.143146 0.761608,0.222185 0.753901,0.142255 1.731419,0.0404 1.906514,-0.19865 0.04052,-0.05532 0.189154,-0.198095 0.330309,-0.317289 0.238911,-0.201744 0.305936,-0.203853 0.969995,-0.03053 0.392342,0.102404 0.939874,0.18619 1.216739,0.18619 0.705416,0 1.632859,-0.303439 1.842011,-0.602666 0.202356,-0.289504 0.394644,-0.306831 1.238612,-0.111615 0.659327,0.152508 0.873499,0.418869 0.873499,1.086358 0,0.198322 0.04638,0.360585 0.103058,0.360585 0.05668,0 0.206765,0.659396 0.333518,1.465325 0.126753,0.805928 0.272302,1.465324 0.323442,1.465324 0.05114,0 0.09298,0.631921 0.09298,1.40427 0,0.854772 -0.04768,1.404269 -0.121857,1.404269 -0.06702,0 -0.121858,0.134789 -0.121858,0.29953 0,0.650233 -0.536555,1.401332 -1.005321,1.407299 -0.117288,0.0015 -0.21325,0.07478 -0.21325,0.162856 0,0.08808 -0.106601,0.2748 -0.236889,0.414939 -0.130289,0.14014 -0.319416,0.452724 -0.420282,0.694633 -0.100866,0.241908 -0.232347,0.439833 -0.29218,0.439833 -0.05983,0 -0.174503,0.219799 -0.254823,0.488442 -0.08032,0.268642 -0.198672,0.488441 -0.263003,0.488441 -0.06433,0 -0.116966,0.05495 -0.116966,0.122111 0,0.07834 1.157643,0.12211 3.229214,0.12211 2.789175,0 3.229215,-0.02496 3.229215,-0.183166 0,-0.100741 0.04738,-0.183165 0.105302,-0.183165 0.05792,0 0.200676,-0.250254 0.317245,-0.55612 0.23963,-0.628764 0.217645,-1.809473 -0.0616,-3.308546 -0.140518,-0.754341 -0.131721,-1.339236 0.06474,-4.304391 0.125045,-1.887285 0.272346,-3.431428 0.327335,-3.431428 0.05499,0 0.09998,-0.105406 0.09998,-0.234234 0,-0.381748 0.134449,-0.620539 0.34939,-0.620539 0.110801,0 0.349302,-0.137374 0.530001,-0.305276 0.253124,-0.235197 0.459394,-0.305276 0.898546,-0.305276 0.703306,0 1.515603,-0.233118 1.602439,-0.459877 0.03568,-0.09316 0.187204,-0.215994 0.336733,-0.272962 0.18237,-0.06948 0.32606,-0.287494 0.436483,-0.662253 0.09054,-0.30727 0.207479,-0.558674 0.259869,-0.558674 0.131773,0 0.120584,-0.946898 -0.01178,-0.997235 -0.05887,-0.02239 -0.14246,-0.205552 -0.185754,-0.407034 l -0.07872,-0.366331 0.789677,-0.01643 c 0.546956,-0.01138 0.850127,-0.07701 0.986346,-0.21351 0.108168,-0.108394 0.323642,-0.229013 0.478829,-0.268043 0.16232,-0.04082 0.378663,-0.261322 0.509372,-0.519153 0.124967,-0.246503 0.282048,-0.487367 0.349069,-0.535252 0.06702,-0.04789 0.121858,-0.573699 0.121858,-1.168473 0,-0.866986 -0.04228,-1.123839 -0.21325,-1.295399 -0.261413,-0.262322 -0.27768,-0.562878 -0.03047,-0.562878 0.100532,0 0.182786,-0.04957 0.182786,-0.110164 0,-0.06059 0.164507,-0.167632 0.365571,-0.23787 0.201065,-0.07024 0.365572,-0.177487 0.365572,-0.238335 0,-0.06085 0.138648,-0.269766 0.308106,-0.464266 0.169458,-0.194499 0.375092,-0.434855 0.456964,-0.534124 0.198926,-0.241196 0.202428,-2.176518 0.0042,-2.299237 -0.195082,-0.120747 -0.428677,-0.758959 -0.351529,-0.960422 0.03414,-0.08916 0.15101,-0.162107 0.259704,-0.162107 0.283202,0 1.354277,-1.154279 1.534494,-1.653697 0.08379,-0.232199 0.19617,-0.422179 0.249728,-0.422179 0.05356,0 0.09738,-0.302224 0.09738,-0.671607 0,-0.369384 -0.05379,-0.671607 -0.119536,-0.671607 -0.06574,0 -0.153218,-0.134482 -0.194386,-0.29885 -0.04117,-0.164366 -0.20672,-0.385431 -0.367893,-0.491256 -0.399328,-0.262194 -0.367864,-0.577684 0.09602,-0.962785 0.213985,-0.177641 0.420857,-0.322986 0.459717,-0.322986 0.03886,0 0.174014,-0.192324 0.300341,-0.427386 0.126327,-0.235063 0.275886,-0.427386 0.332354,-0.427386 0.05647,0 0.102668,-0.384648 0.102668,-0.854773 0,-0.470125 -0.04739,-0.854773 -0.105302,-0.854773 -0.05792,0 -0.199541,-0.247273 -0.314722,-0.549496 -0.11518,-0.302223 -0.246011,-0.550375 -0.290734,-0.551447 -0.166589,-0.004 -0.873344,-0.708014 -0.87228,-0.868903 6.09e-4,-0.0919 0.165117,-0.296907 0.365572,-0.455578 0.200456,-0.158672 0.364466,-0.364733 0.364466,-0.457914 0,-0.09318 0.05272,-0.169421 0.117161,-0.169421 0.06444,0 0.179929,-0.233536 0.256647,-0.518969 0.159386,-0.593004 -4.88e-4,-1.90067 -0.272971,-2.23229 -0.621511,-0.75648 -0.939033,-0.951784 -1.642419,-1.010236 l -0.651847,-0.05417 0,-0.763684 c 0,-0.906672 -0.241353,-1.548227 -0.788831,-2.096843 -0.505527,-0.506577 -0.885309,-0.650432 -1.717173,-0.650432 l -0.662282,0 0,-0.549497 c 0,-0.302223 -0.04382,-0.549496 -0.09738,-0.549496 -0.05356,0 -0.167377,-0.193983 -0.252933,-0.431073 -0.275341,-0.763025 -1.065215,-1.400583 -1.735191,-1.400583 -0.193403,0 -0.351642,-0.05495 -0.351642,-0.12211 0,-0.06716 -0.164507,-0.12211 -0.365571,-0.12211 -0.201065,0 -0.365572,0.05495 -0.365572,0.12211 0,0.06716 -0.18521,0.12211 -0.41158,0.12211 -0.226368,0 -0.479843,0.08243 -0.563277,0.183166 -0.08343,0.100741 -0.227238,0.183165 -0.319563,0.183165 -0.09233,0 -0.167866,0.05495 -0.167866,0.122111 0,0.208651 -0.265365,0.134461 -0.503599,-0.140795 -0.125149,-0.144597 -0.227543,-0.333805 -0.227543,-0.420462 0,-0.08666 -0.09957,-0.22936 -0.221275,-0.317119 -0.121701,-0.08776 -0.255596,-0.251877 -0.297544,-0.364707 -0.04861,-0.130753 -0.277695,-0.235412 -0.631726,-0.288613 -0.305501,-0.04591 -0.555456,-0.132179 -0.555456,-0.191714 0,-0.05953 -0.191925,-0.108246 -0.4265,-0.108246 -0.234575,0 -0.4265,0.05495 -0.4265,0.122111 0,0.06716 -0.113276,0.12211 -0.251725,0.12211 -0.326293,0 -0.742239,0.223924 -0.943291,0.50782 -0.247917,0.35007 -0.520545,0.269922 -1.054407,-0.309977 -0.564103,-0.612747 -1.107775,-0.767056 -2.214397,-0.628505 -0.546921,0.06848 -0.751945,0.167308 -1.166147,0.562148 -0.510977,0.487091 -0.828462,0.608925 -0.828462,0.317921 0,-0.21615 -0.54541,-0.679345 -1.047423,-0.889535 -0.559099,-0.234093 -1.783435,-0.21382 -2.500544,0.0414 -0.327346,0.116505 -0.595176,0.253879 -0.595176,0.305276 0,0.0514 -0.08225,0.09345 -0.182785,0.09345 -0.100533,0 -0.182786,-0.05156 -0.182786,-0.114574 0,-0.250917 -0.699716,-0.828079 -1.192517,-0.983651 -0.661987,-0.208982 -2.186799,-0.01143 -2.424334,0.314095 -0.08325,0.114093 -0.275001,0.269206 -0.426106,0.344697 -0.151105,0.07549 -0.325278,0.313847 -0.38705,0.52968 -0.127589,0.445804 -0.534653,0.650564 -0.739636,0.37205 -0.24307,-0.330261 -0.659438,-0.462297 -1.457827,-0.462297 -0.693363,0 -1.342492,0.15486 -1.536959,0.366666 -0.03351,0.0365 -0.211727,0.162521 -0.396036,0.280049 -0.184309,0.117528 -0.335107,0.294845 -0.335107,0.394038 0,0.252537 -0.5423,0.230074 -0.804945,-0.03334 -0.282953,-0.283786 -2.230345,-0.386732 -2.495583,-0.131925 -0.32679,0.313936 -0.834686,0.589839 -1.085807,0.589839 -0.138471,0 -0.428287,-0.193509 -0.644037,-0.430021 -0.265173,-0.290692 -0.54033,-0.454006 -0.849236,-0.504048 -0.25133,-0.04071 -0.456964,-0.121954 -0.456964,-0.180531 0,-0.05858 -0.246761,-0.106503 -0.548357,-0.106503 -0.301596,0 -0.548357,0.05058 -0.548357,0.112408 0,0.06182 -0.166966,0.149156 -0.371036,0.19407 -0.204069,0.04491 -0.513673,0.214129 -0.688008,0.376034 -0.404435,0.375597 -0.600961,0.372522 -0.696996,-0.0109 -0.04205,-0.167902 -0.130252,-0.305276 -0.195996,-0.305276 -0.06574,0 -0.12136,-0.06869 -0.12359,-0.152638 -0.02108,-0.793724 -2.104614,-1.362336 -3.243955,-0.8853 -0.614873,0.257444 -0.732115,0.232954 -0.876875,-0.183166 -0.07009,-0.201482 -0.176325,-0.366331 -0.236075,-0.366331 -0.05975,0 -0.171097,-0.137374 -0.247441,-0.305276 -0.07634,-0.167901 -0.210046,-0.305276 -0.29712,-0.305276 -0.08707,0 -0.25222,-0.109899 -0.366991,-0.24422 -0.176436,-0.20649 -0.359472,-0.244221 -1.184725,-0.244221 -0.905166,0 -0.97605,-0.01832 -0.97605,-0.252249 0,-0.380964 -0.263872,-0.829139 -0.810935,-1.377339 -0.53539,-0.536504 -0.709227,-0.618066 -1.428417,-0.670195 -0.817662,-0.05927 -0.900728,-0.114392 -1.226636,-0.814032 -0.27047,-0.580629 -0.564789,-0.859303 -1.120035,-1.0605 -0.225566,-0.08174 -0.41012,-0.19252 -0.41012,-0.246189 0,-0.05367 -0.329014,-0.09758 -0.731143,-0.09758 -0.40619,0 -0.731143,0.05427 -0.731143,0.12211 0,0.06716 -0.157855,0.122111 -0.350788,0.122111 -0.274875,0 -0.383556,-0.07928 -0.502212,-0.366331 -0.08328,-0.201482 -0.220312,-0.366331 -0.304506,-0.366331 -0.08419,0 -0.221345,-0.08242 -0.30478,-0.183166 -0.08343,-0.100741 -0.254655,-0.183165 -0.380491,-0.183165 -0.125837,0 -0.228794,-0.05495 -0.228794,-0.122111 0,-0.06888 -0.345262,-0.12211 -0.792072,-0.12211 -0.43564,0 -0.792072,0.04899 -0.792072,0.108872 0,0.05988 -0.133279,0.142393 -0.296175,0.183363 -0.34314,0.0863 -1.166111,0.825396 -1.166111,1.047263 0,0.113079 -0.2102,0.129459 -0.843488,0.06573 -1.0784,-0.108524 -2.0314,0.14326 -2.385726,0.630315 -0.134043,0.184254 -0.339677,0.433555 -0.456964,0.554002 -0.117288,0.120447 -0.21325,0.325317 -0.21325,0.455266 0,0.12995 -0.05348,0.377223 -0.118842,0.549497 -0.109201,0.287815 -0.177693,0.313225 -0.844295,0.313225 -0.435408,0 -0.789836,0.06403 -0.886481,0.160145 -0.08856,0.08808 -0.340544,0.239191 -0.559954,0.335804 -0.2602114,0.114578 -0.4488084,0.313656 -0.5423728,0.572517 -0.078894,0.218272 -0.1818998,0.396859 -0.2289013,0.396859 -0.1591638,0 -0.3530153,0.765852 -0.3523329,1.391963 7.311e-4,0.71369 0.1994935,1.538686 0.37062,1.538686 0.063871,0 0.1161298,0.07231 0.1161298,0.160697 0,0.203874 0.8199232,0.938296 1.0475302,0.938296 0.09407,0 0.171041,0.05495 0.171041,0.12211 0,0.06716 0.08225,0.122111 0.182786,0.122111 0.110695,0 0.182786,0.113336 0.182786,0.287363 0,0.15805 0.03315,0.611385 0.07367,1.007411 0.06351,0.62072 0.03829,0.760524 -0.182785,1.013479 -0.14105,0.161389 -0.256454,0.331427 -0.256454,0.377866 0,0.04644 -0.137022,0.244091 -0.304494,0.43923 -0.1674718,0.195138 -0.3045611,0.415076 -0.3046428,0.48875 -8.16e-5,0.07367 -0.1098201,0.260669 -0.2438629,0.415543 -0.1340429,0.154874 -0.2437143,0.319584 -0.2437143,0.366022 0,0.04644 -0.1370223,0.244091 -0.3044942,0.43923 -0.167472,0.195138 -0.3045613,0.403366 -0.3046429,0.462727 -8.17e-5,0.05936 -0.355093,0.454966 -0.788913,0.879122 -0.6326226,0.618528 -0.8174518,0.887234 -0.9336804,1.357393 -0.079704,0.322412 -0.2018308,0.623713 -0.2713929,0.669558 -0.163352,0.107659 -0.1648008,0.945411 -0.00183,1.054394 0.068559,0.04584 0.1600582,0.179517 0.2033321,0.297048 0.057993,0.157507 0.2158565,0.214185 0.6003975,0.215563 0.7457998,0.0027 0.9141065,0.135408 0.7181541,0.56637 -0.1406426,0.309316 -0.1285032,0.362171 0.1287847,0.560721 0.1562355,0.120568 0.420027,0.335069 0.5862036,0.476671 0.287238,0.24476 0.3848907,0.253247 1.9801784,0.1721 l 1.67804,-0.08536 0,0.565064 c 0,0.636423 0.22438,1.650092 0.365254,1.650092 0.05093,0 0.159134,0.160944 0.240445,0.357653 0.135735,0.328377 0.24708,0.44013 0.89582,0.899112 0.165207,0.116884 0.200804,0.241782 0.139111,0.488095 -0.0456,0.182059 -0.131798,0.331016 -0.191554,0.331016 -0.05976,0 -0.108647,0.357173 -0.108647,0.793718 0,0.436544 0.0462,0.793717 0.102668,0.793717 0.05647,0 0.206027,0.192324 0.332354,0.427387 0.126326,0.235062 0.258902,0.427386 0.294612,0.427386 0.03571,0 0.21359,0.138134 0.395288,0.306965 0.419212,0.389521 0.835872,0.547807 1.442011,0.547807 l 0.479496,0 0,0.657586 c 0,0.820768 0.328879,1.878605 0.612054,1.968668 0.116129,0.03693 0.368647,0.20289 0.561152,0.368791 0.192505,0.165901 0.423231,0.301705 0.512727,0.301786 0.128558,1.18e-4 0.14511,0.18845 0.07884,0.897095 -0.09629,1.029723 0.104444,2.254635 0.387311,2.363407 0.100029,0.03846 0.228385,0.192531 0.285235,0.34237 0.06934,0.182749 0.286898,0.326738 0.66088,0.437391 0.306633,0.09072 0.557515,0.20791 0.557515,0.260409 0,0.0525 0.137089,0.09545 0.304643,0.09545 0.291103,0 0.304643,0.03256 0.304643,0.732662 0,0.407034 0.05416,0.732662 0.121857,0.732662 0.06702,0 0.121857,0.0758 0.121857,0.168442 0,0.274584 0.915871,1.137591 1.389355,1.309161 0.241176,0.08739 0.438502,0.202804 0.438502,0.256473 0,0.05367 0.164507,0.09758 0.365572,0.09758 0.365571,0 0.365571,0 0.365571,0.732662 0,0.402964 0.04183,0.732662 0.09296,0.732662 0.09265,0 0.31223,0.360106 0.463505,0.760148 0.04381,0.115859 0.265543,0.278009 0.492739,0.360334 0.227194,0.08233 0.413081,0.188219 0.413081,0.235317 0,0.182121 0.806951,0.353746 1.663255,0.353746 0.49266,0 0.895745,0.04625 0.895745,0.102782 0,0.11928 0.674634,0.327551 1.462286,0.451433 0.610397,0.096 0.726552,0.207085 0.729277,0.697417 9.75e-4,0.184692 0.04763,0.335803 0.10357,0.335803 0.05594,0 0.201013,0.686871 0.32239,1.52638 0.121378,0.839509 0.257048,1.526379 0.301489,1.526379 0.04444,0 0.150654,0.494547 0.236025,1.098994 0.08537,0.604446 0.205533,1.098993 0.267022,1.098993 0.06149,0 0.111798,0.494547 0.111798,1.098993 0,0.604447 -0.05048,1.098994 -0.112174,1.098994 -0.0617,0 -0.149122,0.168562 -0.194277,0.374582 -0.04516,0.20602 -0.159184,0.404223 -0.253397,0.440451 -0.09421,0.03623 -0.171295,0.143592 -0.171295,0.238588 0,0.09499 -0.137089,0.23531 -0.304643,0.311811 -0.167553,0.0765 -0.304642,0.173375 -0.304642,0.215275 0,0.0419 -0.160284,0.17106 -0.356185,0.287022 -0.215847,0.127769 -0.387703,0.354646 -0.436182,0.575825 -0.044,0.200741 -0.133275,0.364984 -0.198391,0.364984 -0.06512,0 -0.198584,0.192324 -0.296596,0.427387 -0.09801,0.235062 -0.218917,0.427386 -0.268678,0.427386 -0.04976,0 -0.169034,0.178586 -0.265052,0.396859 -0.09602,0.218272 -0.246493,0.46947 -0.33439,0.558219 -0.0879,0.08875 -0.159812,0.212384 -0.159812,0.274748 0,0.06687 1.30097,0.113388 3.171302,0.113388 l 3.171301,0 0.115826,-0.305276 z m -5.849143,-0.128174 c 0,-0.229103 0.333716,-0.895287 0.564159,-1.126208 0.09184,-0.09203 0.166984,-0.243898 0.166984,-0.337478 0,-0.346819 0.46668,-0.454538 1.292639,-0.298367 0.428413,0.081 0.778933,0.18742 0.778933,0.236479 0,0.04906 0.466103,0.187217 1.035785,0.307016 0.569683,0.1198 1.035786,0.259524 1.035786,0.310496 0,0.05097 0.246761,0.129759 0.548357,0.175081 0.601379,0.09037 0.677619,0.247051 0.320814,0.659305 -0.220418,0.254672 -0.313904,0.262905 -2.985501,0.262905 -2.409559,0 -2.757956,-0.0239 -2.757956,-0.189229 z m 5.43761,-0.23571 c 0.159221,-0.159552 0.122519,-0.189985 -0.313347,-0.259828 -0.27153,-0.04351 -0.493691,-0.119087 -0.493691,-0.167949 0,-0.04886 -0.452395,-0.186266 -1.005322,-0.305342 -0.552926,-0.119077 -1.032739,-0.257498 -1.06625,-0.307602 -0.03351,-0.05011 -0.315082,-0.14494 -0.625715,-0.210744 -0.596868,-0.126442 -0.958428,-0.02478 -0.958428,0.26948 0,0.09261 -0.07359,0.242122 -0.163539,0.332256 -0.170113,0.170465 -0.445746,0.641267 -0.445746,0.761365 0,0.038 1.10063,0.06908 2.445847,0.06908 1.996894,0 2.478951,-0.03317 2.626191,-0.180718 z m 26.779567,0.03033 c 0.04304,-0.219508 0.151327,-0.454055 0.240642,-0.521216 0.08931,-0.06716 0.23769,-0.330965 0.329722,-0.586233 0.164521,-0.456333 0.175576,-0.462744 0.658503,-0.381904 0.270144,0.04522 0.51859,0.123795 0.552101,0.174613 0.03351,0.05082 0.664121,0.193111 1.401357,0.31621 0.737236,0.123097 1.367847,0.261726 1.401357,0.308065 0.03351,0.04634 0.324376,0.123799 0.646365,0.172136 0.566909,0.0851 0.584264,0.09998 0.548357,0.469886 l -0.03708,0.382 -2.909788,0.03277 -2.909787,0.03278 0.07825,-0.399106 z m 5.523282,-0.04864 c 0.02743,-0.08262 -0.188545,-0.173162 -0.538285,-0.225664 -0.321256,-0.04823 -0.611518,-0.125598 -0.645029,-0.171937 -0.03351,-0.04634 -0.664121,-0.184708 -1.401357,-0.307487 -0.737236,-0.122781 -1.358707,-0.271804 -1.381047,-0.331165 -0.02234,-0.05936 -0.166486,-0.107926 -0.320324,-0.107926 -0.201516,0 -0.324416,0.110939 -0.439654,0.396859 -0.08797,0.218272 -0.231714,0.440801 -0.319427,0.494509 -0.08771,0.05371 -0.159477,0.178438 -0.159477,0.277177 0,0.153345 0.376163,0.174721 2.579392,0.146571 1.78267,-0.02278 2.593543,-0.07558 2.625208,-0.170937 z M 33.731393,69.71417 c -0.296736,-0.05833 -0.570915,-0.155161 -0.609286,-0.215168 -0.03837,-0.06001 -0.522161,-0.20653 -1.075087,-0.325608 -0.552927,-0.119076 -1.005322,-0.257264 -1.005322,-0.307084 0,-0.04982 -0.246761,-0.127663 -0.548357,-0.172984 -0.771244,-0.115895 -0.734164,-0.457803 0.09139,-0.842719 0.25133,-0.117183 0.456964,-0.263291 0.456964,-0.324684 0,-0.06139 0.103971,-0.209927 0.231047,-0.330074 0.313161,-0.296086 0.498518,-1.033739 0.49981,-1.989051 0.0011,-0.852955 -0.354599,-3.318403 -0.493357,-3.419091 -0.04628,-0.03358 -0.153153,-0.555602 -0.2375,-1.160048 -0.08435,-0.604446 -0.196471,-1.126841 -0.249166,-1.160877 -0.05269,-0.03404 -0.134203,-0.452343 -0.18113,-0.929572 -0.08338,-0.84789 -0.07857,-0.869387 0.210459,-0.94208 0.347184,-0.08732 0.95098,-0.578901 0.95098,-0.774244 0,-0.131145 0.267648,-0.283925 0.497395,-0.283925 0.06154,0 0.111891,0.08415 0.111891,0.186998 0,0.10285 0.08225,0.218628 0.182786,0.257285 0.100532,0.03866 0.182834,0.133096 0.182894,0.209862 5.9e-5,0.07676 0.217152,0.35056 0.482427,0.608434 0.346026,0.33637 0.62197,0.487632 0.976514,0.535284 0.400409,0.05382 0.50883,0.124856 0.571312,0.374325 0.107958,0.431032 -0.03847,4.778413 -0.198542,5.894669 -0.09553,0.666172 -0.09529,1.210423 8.53e-4,1.953766 0.0733,0.566701 0.16358,1.53865 0.200619,2.159887 0.07641,1.281637 0.131883,1.228965 -1.049602,0.996699 z m 0.710892,-1.93958 c -0.203448,-1.331046 -0.208796,-2.611027 -0.01905,-4.558737 0.16702,-1.714432 0.200417,-4.220307 0.05906,-4.431495 -0.04924,-0.07357 -0.299681,-0.167007 -0.556534,-0.207649 -0.312292,-0.04941 -0.625125,-0.227598 -0.944284,-0.537851 -0.262504,-0.255178 -0.477327,-0.505171 -0.477387,-0.555541 -5.9e-5,-0.05037 -0.109779,-0.201482 -0.243822,-0.335804 -0.139435,-0.139724 -0.243715,-0.180574 -0.243715,-0.09547 0,0.203128 -0.591181,0.696816 -0.939251,0.784357 -0.265611,0.0668 -0.278777,0.112162 -0.202796,0.698688 0.04469,0.344986 0.120921,0.654721 0.169401,0.688302 0.04848,0.03358 0.157156,0.555602 0.241503,1.160048 0.08435,0.604446 0.191222,1.126468 0.2375,1.160049 0.156944,0.113883 0.494437,2.619853 0.493357,3.663311 -0.0012,1.183592 -0.165377,1.917074 -0.499809,2.233271 -0.127077,0.120147 -0.231048,0.269662 -0.231048,0.332255 0,0.06259 -0.233051,0.221726 -0.517892,0.35363 l -0.517893,0.239826 0.517893,0.0846 c 0.284841,0.04653 0.517892,0.124584 0.517892,0.173447 0,0.04886 0.452395,0.186266 1.005322,0.305342 0.552927,0.119077 1.036715,0.265601 1.075087,0.325607 0.03837,0.06001 0.31255,0.15108 0.609286,0.202383 0.534364,0.09239 0.539929,0.08974 0.582406,-0.277415 0.02359,-0.203883 -0.02826,-0.836204 -0.115228,-1.405159 z m 30.963129,1.914336 c -0.368617,-0.06929 -0.697632,-0.164037 -0.731142,-0.210549 -0.05206,-0.07225 -2.23751,-0.486158 -2.566951,-0.486158 -0.06265,0 -0.113907,-0.109899 -0.113907,-0.244221 0,-0.134321 0.06715,-0.24422 0.149227,-0.24422 0.280236,0 0.950842,-0.893844 1.02655,-1.368279 0.04067,-0.254857 0.12177,-0.463377 0.180226,-0.463377 0.05845,0 0.106283,-0.686871 0.106283,-1.526379 0,-0.839509 -0.04653,-1.52638 -0.103391,-1.52638 -0.05686,0 -0.170394,-0.479956 -0.252287,-1.066568 -0.08189,-0.586614 -0.197098,-1.096421 -0.256012,-1.132907 -0.05891,-0.03649 -0.144882,-0.435725 -0.19104,-0.887198 -0.08009,-0.783347 -0.07202,-0.820859 0.176617,-0.820859 0.143298,0 0.260542,-0.04793 0.260542,-0.106503 0,-0.05858 0.22256,-0.142167 0.494579,-0.185755 0.377678,-0.06052 0.543293,-0.165043 0.700678,-0.442221 0.113354,-0.199633 0.247227,-0.363318 0.297493,-0.363742 0.05027,-3.67e-4 0.09223,-0.06946 0.09326,-0.15341 0.0053,-0.436487 0.198396,-0.498099 0.838282,-0.267521 0.342176,0.1233 0.622138,0.268277 0.622138,0.32217 0,0.05389 0.240693,0.09799 0.534873,0.09799 l 0.534872,0 -0.0649,1.068466 c -0.0357,0.587656 -0.104437,1.09594 -0.152752,1.12952 -0.04832,0.03358 -0.160168,1.232644 -0.248559,2.664585 -0.13115,2.124609 -0.132016,2.776015 -0.0047,3.541201 0.08581,0.515719 0.205516,0.955988 0.26602,0.978374 0.06051,0.02239 0.110009,0.448248 0.110009,0.946356 l 0,0.905652 -0.517893,-0.01604 c -0.284841,-0.0088 -0.819489,-0.07273 -1.188107,-0.142024 z M 66.8677,68.931164 c 0,-0.369384 -0.04536,-0.671607 -0.100794,-0.671607 -0.152026,0 -0.386346,-1.443454 -0.388823,-2.395232 -0.0036,-1.393342 0.284123,-5.297721 0.390439,-5.297721 0.05455,0 0.09918,-0.384648 0.09918,-0.854773 l 0,-0.854772 -0.487428,0 c -0.268086,0 -0.487429,-0.0429 -0.487429,-0.09534 0,-0.128948 -0.740332,-0.401825 -0.870857,-0.320988 -0.0572,0.03542 -0.104,0.143591 -0.104,0.240368 0,0.09678 -0.04113,0.176307 -0.09139,0.17673 -0.05027,3.67e-4 -0.184138,0.164109 -0.297492,0.363743 -0.157386,0.277178 -0.323001,0.381702 -0.700679,0.442221 -0.272019,0.04359 -0.494579,0.127177 -0.494579,0.185754 0,0.05858 -0.113031,0.106504 -0.251181,0.106504 -0.230389,0 -0.24412,0.04801 -0.165873,0.580024 0.04692,0.319013 0.128677,0.608353 0.181681,0.642977 0.053,0.03462 0.163374,0.542908 0.245266,1.129521 0.08189,0.586612 0.195423,1.066568 0.252287,1.066568 0.05686,0 0.103391,0.79677 0.103391,1.770601 0,0.97383 -0.04783,1.7706 -0.106282,1.7706 -0.05846,0 -0.139575,0.208628 -0.180265,0.463619 -0.04216,0.264189 -0.23326,0.642392 -0.444262,0.87922 -0.447675,0.502471 -0.407856,0.534445 0.913595,0.733607 0.536172,0.08081 1.002275,0.187203 1.035786,0.236431 0.06183,0.09083 1.174198,0.328176 1.675536,0.357509 0.25304,0.0148 0.274178,-0.03574 0.274178,-0.655565 z M 49.637802,60.14538 c -0.328018,-0.08828 -0.646048,-0.249425 -0.706733,-0.358088 -0.06068,-0.108664 -0.185296,-0.197571 -0.276913,-0.197571 -0.09162,0 -0.185608,-0.05721 -0.20887,-0.127144 -0.04595,-0.138126 -0.830356,0.19812 -0.976175,0.418449 -0.123917,0.187233 -1.588966,0.172551 -1.652071,-0.01656 -0.02801,-0.08395 -0.153457,-0.152638 -0.278762,-0.152638 -0.370426,0 -0.823448,-0.256843 -0.887772,-0.503327 -0.06948,-0.266259 -0.241571,-0.29382 -0.469996,-0.07527 -0.635927,0.608428 -2.557579,0.609178 -2.939331,0.0011 -0.0536,-0.08532 -0.161208,-0.155161 -0.239137,-0.155161 -0.07793,0 -0.253419,-0.136347 -0.389981,-0.302994 -0.225664,-0.275383 -0.292709,-0.292341 -0.735719,-0.186079 -1.097352,0.263213 -2.48399,0.04331 -2.662254,-0.422205 -0.03954,-0.103243 -0.155858,-0.187715 -0.258494,-0.187715 -0.105371,0 -0.18661,-0.106318 -0.18661,-0.244221 0,-0.134322 -0.05484,-0.244221 -0.121857,-0.244221 -0.06702,0 -0.121857,0.0431 -0.121857,0.09578 0,0.05268 -0.178216,0.199654 -0.396036,0.326608 -0.217819,0.126953 -0.433987,0.288007 -0.480372,0.357895 -0.117983,0.17777 -1.516897,0.120057 -1.753284,-0.07233 -0.571548,-0.465165 -0.991168,-0.943466 -1.208808,-1.37785 -0.463558,-0.925207 -0.671888,-0.980846 -0.914489,-0.24423 -0.07711,0.234127 -0.212332,0.425686 -0.300495,0.425686 -0.08817,0 -0.191485,0.08144 -0.229601,0.180975 -0.03812,0.09954 -0.290744,0.216458 -0.561395,0.259827 -0.270651,0.04337 -0.492092,0.126779 -0.492092,0.185356 0,0.05858 -0.109671,0.106504 -0.243714,0.106504 -0.134043,0 -0.243714,-0.05495 -0.243714,-0.122111 0,-0.06716 -0.161928,-0.12211 -0.359839,-0.12211 -0.405766,0 -0.996751,-0.229729 -1.129978,-0.439249 -0.05862,-0.09219 -0.372524,-0.118748 -0.930511,-0.07874 -0.837052,0.06002 -1.96653,-0.213078 -1.96653,-0.475482 0,-0.05804 -0.08225,-0.10552 -0.182786,-0.10552 -0.100532,0 -0.182852,-0.04121 -0.182934,-0.09158 -8.2e-5,-0.05037 -0.142233,-0.256432 -0.31589,-0.457914 -0.285676,-0.331449 -0.31139,-0.444815 -0.270047,-1.190576 l 0.0457,-0.824245 -0.521877,0 c -0.287032,0 -0.521876,-0.04957 -0.521876,-0.110164 0,-0.06059 -0.176951,-0.171979 -0.393225,-0.24753 -0.216274,-0.07555 -0.631626,-0.390263 -0.923004,-0.699362 l -0.529779,-0.561997 0.03954,-0.869492 0.03954,-0.86949 -0.591247,-0.01294 c -0.325186,-0.0071 -0.626782,-0.0684 -0.670215,-0.136179 -0.04343,-0.06778 -0.199542,-0.160933 -0.346912,-0.207 -0.147369,-0.04607 -0.300255,-0.185772 -0.339745,-0.310454 -0.03949,-0.124682 -0.150984,-0.257142 -0.247763,-0.294356 -0.09678,-0.03721 -0.211371,-0.289564 -0.254649,-0.560778 -0.04328,-0.271213 -0.126516,-0.493114 -0.184972,-0.493114 -0.05845,0 -0.106283,-0.247274 -0.106283,-0.549497 0,-0.302223 0.04351,-0.549497 0.09668,-0.549497 0.05317,0 0.155228,-0.219798 0.226785,-0.488441 0.106461,-0.399689 0.09904,-0.488442 -0.04085,-0.488442 -0.09402,0 -0.28867,-0.109899 -0.432548,-0.24422 -0.143879,-0.134322 -0.327645,-0.244221 -0.408368,-0.244221 -0.08072,0 -0.178336,-0.08243 -0.216913,-0.183166 -0.03858,-0.100741 -0.154326,-0.183165 -0.25722,-0.183165 -0.118756,0 -0.24064,-0.20068 -0.333741,-0.549497 -0.08066,-0.302223 -0.190125,-0.549497 -0.243247,-0.549497 -0.05312,0 -0.09658,-0.247273 -0.09658,-0.549496 0,-0.302223 0.05484,-0.549497 0.121857,-0.549497 0.06702,0 0.121857,-0.109899 0.121857,-0.244221 0,-0.214362 -0.08124,-0.24422 -0.664481,-0.24422 -0.365464,0 -0.817859,-0.06793 -1.005322,-0.150962 -0.391287,-0.173304 -1.011054,-0.746048 -1.011054,-0.934342 0,-0.06996 -0.115572,-0.189188 -0.256828,-0.264943 -0.231411,-0.124104 -0.25208,-0.22191 -0.208862,-0.98835 0.02638,-0.467839 0.106092,-0.888601 0.177135,-0.935027 0.216633,-0.141566 0.319699,-0.756019 0.126812,-0.756019 -0.301733,0 -0.934972,-0.380817 -0.934972,-0.562273 0,-0.09793 -0.07582,-0.207207 -0.168478,-0.242839 -0.289546,-0.111341 -0.601747,-1.34447 -0.52617,-2.078261 0.04556,-0.44239 0.01819,-0.707996 -0.08354,-0.810557 -0.08322,-0.0839 -0.25703,-0.454769 -0.386239,-0.824153 -0.129208,-0.369384 -0.2778,-0.703129 -0.330204,-0.741656 -0.131482,-0.09667 -0.331178,-1.931932 -0.332298,-3.053928 -9.75e-4,-0.967829 0.211822,-2.309935 0.366237,-2.309935 0.04939,0 0.123034,-0.166507 0.163651,-0.370015 0.04062,-0.203509 0.211979,-0.498296 0.380804,-0.655082 0.168825,-0.156787 0.306954,-0.346406 0.306954,-0.421376 0,-0.07497 0.13709,-0.170787 0.304643,-0.212928 0.167554,-0.04214 0.304643,-0.154812 0.304643,-0.250379 0,-0.09557 0.08225,-0.20539 0.182786,-0.244048 0.104235,-0.04008 0.182786,-0.222214 0.182786,-0.423821 0,-0.543273 -0.742932,-1.184729 -1.48665,-1.283592 -0.321708,-0.04276 -0.584922,-0.119385 -0.584922,-0.170267 0,-0.05088 -0.246106,-0.129497 -0.546902,-0.174698 -0.300795,-0.0452 -0.623185,-0.158626 -0.716423,-0.252057 -0.09324,-0.09343 -0.316382,-0.20681 -0.49588,-0.251955 C 9.9714205,23.329882 9.7330119,23.148583 9.6211202,22.97214 9.5092297,22.795697 9.3813931,22.623859 9.3370407,22.590279 9.1872637,22.476881 8.9869171,21.556141 8.9862323,20.978062 c -7.312e-4,-0.580527 0.1733125,-1.123235 0.4548635,-1.418737 0.084559,-0.08875 0.1537435,-0.236157 0.1537435,-0.327575 0,-0.09142 0.109346,-0.200992 0.2429929,-0.243498 0.1336456,-0.0425 0.3347608,-0.169242 0.4469228,-0.281637 0.142079,-0.142373 0.46886,-0.217761 1.077407,-0.248555 0.858453,-0.04344 0.875916,-0.05096 1.015362,-0.437395 0.07804,-0.216258 0.141887,-0.513294 0.141887,-0.660082 0,-0.146787 0.137089,-0.386331 0.304643,-0.53232 0.167553,-0.145989 0.304643,-0.331884 0.304643,-0.413101 0,-0.08122 0.24676,-0.220677 0.548357,-0.309913 0.301596,-0.08924 0.548357,-0.205201 0.548357,-0.257699 0,-0.130427 1.066216,-0.12169 1.117023,0.0092 0.02234,0.05753 0.246254,0.142448 0.497584,0.1887 0.356406,0.06559 0.456965,0.04516 0.456965,-0.09284 0,-0.199215 0.717214,-1.055241 0.884126,-1.055241 0.05948,0 0.196933,-0.08898 0.305458,-0.19773 0.302508,-0.303136 1.84628,-0.179632 2.229769,0.178385 0.155274,0.144961 0.326812,0.263565 0.381196,0.263565 0.05438,0 0.09888,0.05245 0.09888,0.11656 0,0.145872 0.582964,0.738213 0.726527,0.738213 0.05839,0 0.127928,-0.06543 0.15453,-0.145401 0.07517,-0.225974 1.593526,-0.287789 1.808736,-0.07364 0.09562,0.09515 0.349158,0.250429 0.563423,0.345069 0.214266,0.09464 0.418407,0.287191 0.453647,0.42789 0.03524,0.140698 0.175236,0.384255 0.311105,0.541238 0.135868,0.156983 0.247032,0.386914 0.247032,0.51096 0,0.194051 0.101269,0.225536 0.72541,0.225536 0.784786,0 1.248556,0.158167 1.654054,0.564109 0.351423,0.351807 0.666976,1.046952 0.666912,1.469167 l -5.2e-5,0.347877 1.127231,0 c 0.986858,0 1.159478,0.03231 1.386178,0.259484 0.14242,0.142717 0.306927,0.280091 0.365571,0.305276 0.187909,0.0807 0.533125,0.805958 0.533125,1.120033 0,0.404453 0.357419,0.538647 0.604277,0.226878 0.103288,-0.130444 0.311175,-0.274202 0.461973,-0.319461 0.150798,-0.04526 0.274179,-0.133535 0.274179,-0.19617 0,-0.06264 0.301596,-0.113882 0.670214,-0.113882 0.368618,0 0.670214,0.04884 0.670214,0.108521 0,0.05969 0.185248,0.143345 0.411661,0.185909 0.536769,0.100908 0.995737,0.537999 1.253353,1.193612 0.186838,0.475492 0.357724,0.704228 0.528415,0.707303 0.03351,5.99e-4 0.149926,-0.155695 0.258699,-0.34733 0.108775,-0.191636 0.348451,-0.386325 0.532613,-0.432643 0.184164,-0.04632 0.420894,-0.170445 0.526067,-0.275837 0.270448,-0.271009 1.645156,-0.128376 2.005559,0.208088 0.141282,0.131897 0.294975,0.239812 0.341542,0.239812 0.04657,0 0.113346,0.1099 0.1484,0.244221 0.03505,0.134321 0.144725,0.244221 0.243714,0.244221 0.09899,0 0.208661,0.109899 0.243714,0.24422 0.0858,0.328797 0.260859,0.3075 0.501843,-0.06105 0.109786,-0.167901 0.260845,-0.305276 0.335689,-0.305276 0.07484,0 0.204691,-0.09403 0.288549,-0.208949 0.112446,-0.154098 0.383784,-0.222047 1.03364,-0.258843 1.118557,-0.06334 1.723064,0.124641 1.933602,0.601271 0.200441,0.453766 0.339851,0.450173 0.441012,-0.01137 0.04416,-0.201482 0.121505,-0.366331 0.171877,-0.366331 0.05037,0 0.159981,-0.128067 0.243577,-0.284593 0.231402,-0.433277 1.192255,-0.7309 2.160248,-0.669135 0.743453,0.04744 0.826822,0.08267 1.18877,0.502372 0.214086,0.248246 0.425881,0.451357 0.470655,0.451357 0.04478,0 0.140471,-0.219799 0.212659,-0.488442 0.07219,-0.268643 0.183973,-0.488441 0.248411,-0.488441 0.06444,0 0.117161,-0.07021 0.117161,-0.156028 0,-0.339741 0.952577,-0.941001 1.49275,-0.942213 0.184309,-4.16e-4 0.335107,-0.0557 0.335107,-0.122863 0,-0.143671 0.813757,-0.167239 0.87331,-0.02529 0.02234,0.05325 0.258392,0.178571 0.524559,0.278493 0.385676,0.144787 0.508229,0.267695 0.603569,0.605317 0.157848,0.558983 0.335392,0.733826 0.596483,0.587408 0.112637,-0.06316 0.204794,-0.185745 0.204794,-0.272399 0,-0.08665 0.219342,-0.230093 0.487428,-0.318753 0.268086,-0.08866 0.487429,-0.207355 0.487429,-0.263766 0,-0.05641 0.356432,-0.102566 0.792071,-0.102566 0.44681,0 0.792072,0.05323 0.792072,0.122111 0,0.06716 0.083,0.12211 0.184439,0.12211 0.230241,0 0.698446,0.2569 0.82357,0.451886 0.05175,0.08064 0.164486,0.21801 0.250534,0.305276 0.08605,0.08727 0.192789,0.254828 0.237201,0.372359 0.08522,0.225521 0.332113,0.296629 0.332113,0.09565 0,-0.06492 0.193982,-0.312424 0.43107,-0.550005 0.826434,-0.828151 2.476038,-0.889446 3.265302,-0.12133 0.235627,0.229314 0.463656,0.528208 0.506732,0.66421 0.1077,0.340035 0.207336,0.313678 0.684533,-0.181079 0.27007,-0.280009 0.571401,-0.454568 0.870113,-0.504048 0.251331,-0.04163 0.456965,-0.12362 0.456965,-0.182197 0,-0.05858 0.164507,-0.106504 0.365571,-0.106504 0.201064,0 0.365571,0.04871 0.365571,0.108245 0,0.05954 0.244001,0.144912 0.542223,0.189726 0.364003,0.0547 0.564724,0.15252 0.61068,0.297615 0.03765,0.118874 0.174506,0.330201 0.304121,0.469616 0.129616,0.139415 0.283273,0.437588 0.34146,0.662606 0.05819,0.225018 0.163668,0.409123 0.234401,0.409123 0.129428,0 0.778109,-0.460182 1.107513,-0.785683 0.245774,-0.242863 1.979501,-0.242863 2.274196,0 0.672802,0.554466 1.026399,0.977644 1.100896,1.317531 0.04629,0.211189 0.13464,0.38398 0.196336,0.38398 0.0617,0 0.112175,0.137374 0.112175,0.305276 0,0.167901 -0.05484,0.305276 -0.121857,0.305276 -0.06702,0 -0.121857,0.137374 -0.121857,0.305276 0,0.29832 0.02069,0.305276 0.908195,0.305276 1.299289,0 1.944914,0.362762 2.275352,1.278472 0.08556,0.23709 0.199375,0.431073 0.252933,0.431073 0.05356,0 0.09738,0.329698 0.09738,0.732662 0,0.407034 -0.05416,0.732662 -0.121857,0.732662 -0.06702,0 -0.121857,0.08243 -0.121857,0.183166 0,0.142217 0.161509,0.183165 0.722438,0.183165 0.431021,0 0.787394,0.06433 0.883465,0.159471 0.08856,0.08771 0.258232,0.196362 0.377039,0.241451 0.118808,0.04509 0.251897,0.179388 0.295755,0.298444 0.04386,0.119054 0.132109,0.251664 0.196113,0.29469 0.217618,0.146286 0.337478,1.355452 0.194994,1.967121 -0.07431,0.319013 -0.175677,0.580024 -0.225256,0.580024 -0.04958,0 -0.152604,0.137374 -0.228948,0.305276 -0.07634,0.167902 -0.208524,0.305343 -0.293738,0.305425 -0.166106,1.22e-4 -0.898088,0.585312 -0.814366,0.651011 0.02758,0.02164 0.242072,0.115091 0.476647,0.207661 0.445134,0.175661 1.096714,0.74288 1.096714,0.95472 0,0.06753 0.09596,0.218942 0.21325,0.336473 0.166652,0.167 0.21325,0.421876 0.21325,1.166419 0,0.849587 -0.02968,0.973561 -0.274179,1.145169 -0.150798,0.105842 -0.274178,0.265341 -0.274178,0.35444 0,0.0891 -0.09596,0.194288 -0.21325,0.233752 -0.248118,0.08348 -0.615911,0.31539 -0.86553,0.545745 -0.150224,0.138632 -0.111728,0.22335 0.270576,0.595452 0.245145,0.238604 0.478385,0.564256 0.518314,0.723672 0.03993,0.159417 0.121487,0.289849 0.181243,0.289849 0.05975,0 0.108647,0.274748 0.108647,0.610552 0,0.335803 -0.05058,0.610552 -0.112407,0.610552 -0.06182,0 -0.174664,0.189035 -0.250758,0.420078 -0.07609,0.231043 -0.359784,0.641973 -0.630426,0.913176 -0.395764,0.396586 -0.609039,0.508645 -1.089671,0.572536 -0.58246,0.07743 -0.767831,0.2344 -0.430147,0.364251 0.0921,0.03541 0.270312,0.267225 0.396036,0.515136 0.125722,0.247911 0.27659,0.485723 0.335261,0.528473 0.195451,0.142411 0.24518,1.748751 0.06035,1.949329 -0.233555,0.253447 -0.465979,0.621413 -0.549549,0.870025 -0.03894,0.115858 -0.256696,0.278009 -0.483891,0.360334 -0.227194,0.08233 -0.413081,0.193594 -0.413081,0.247263 0,0.05367 -0.164507,0.09758 -0.365572,0.09758 -0.414633,0 -0.462973,0.145853 -0.152321,0.459588 0.345599,0.349032 0.517893,0.853472 0.517893,1.516284 0,0.672657 -0.219477,1.565329 -0.38486,1.565329 -0.05641,0 -0.102569,0.08523 -0.102569,0.189397 0,0.104167 -0.186901,0.26765 -0.415335,0.363295 -0.228435,0.09564 -0.436327,0.237002 -0.461983,0.314129 -0.03023,0.09088 -0.398694,0.13869 -1.04695,0.135853 -1.064979,-0.0047 -1.221113,0.101827 -0.787053,0.536789 0.24794,0.248455 0.308733,1.705207 0.07735,1.853553 -0.07474,0.04792 -0.173511,0.207955 -0.219483,0.355632 -0.04597,0.147675 -0.190453,0.302491 -0.321067,0.344032 -0.130615,0.04154 -0.237481,0.129635 -0.237481,0.195764 0,0.06613 -0.164507,0.1777 -0.365571,0.247937 -0.201065,0.07024 -0.365572,0.177278 -0.365572,0.23787 0,0.06059 -0.301596,0.110164 -0.670214,0.110164 -0.368618,0 -0.670214,-0.05495 -0.670214,-0.122111 0,-0.06716 -0.08225,-0.12211 -0.182786,-0.12211 -0.100532,0 -0.182786,0.09769 -0.182786,0.217083 0,0.459421 -0.487593,0.696264 -1.436046,0.697546 -0.517657,7.32e-4 -0.924026,-0.05525 -0.974857,-0.13423 -0.04794,-0.07449 -0.292802,-0.209162 -0.544133,-0.299279 -0.25133,-0.09012 -0.456964,-0.235236 -0.456964,-0.322485 0,-0.393016 -0.216843,-0.09423 -0.416603,0.574027 -0.120456,0.402965 -0.257584,0.732663 -0.304727,0.732663 -0.04714,0 -0.210105,0.116126 -0.362136,0.25806 -0.221584,0.206866 -0.444473,0.261371 -1.123523,0.274749 -0.473472,0.0093 -0.885722,-0.03979 -0.934664,-0.111368 -0.04816,-0.07043 -0.320613,-0.196274 -0.605455,-0.279651 -0.284841,-0.08338 -0.517892,-0.204338 -0.517892,-0.268802 0,-0.06446 -0.05484,-0.117209 -0.121858,-0.117209 -0.06702,0 -0.121857,0.08201 -0.121857,0.182236 0,0.337572 -0.505966,0.776319 -0.989699,0.858215 -0.259923,0.044 -0.472586,0.130128 -0.472586,0.191386 0,0.06126 -0.246761,0.111377 -0.548358,0.111377 -0.301596,0 -0.548357,-0.05495 -0.548357,-0.122111 0,-0.06716 -0.142338,-0.12211 -0.316306,-0.12211 -0.173968,0 -0.474426,-0.0936 -0.667685,-0.207997 -0.347926,-0.205951 -0.354753,-0.204211 -0.694408,0.177019 -0.375743,0.421733 -1.248968,0.696266 -1.828795,0.574955 -0.937727,-0.196191 -1.357751,-0.343456 -1.416398,-0.496603 -0.0357,-0.09322 -0.148876,-0.169484 -0.251513,-0.169484 -0.102635,0 -0.186609,-0.05495 -0.186609,-0.122111 0,-0.248097 -0.243085,-0.111203 -0.423566,0.238536 -0.302016,0.585247 -1.248388,0.756506 -2.427189,0.439234 z m 1.540595,-0.195695 c 0.311279,-0.08663 0.516048,-0.241987 0.64288,-0.48776 0.14285,-0.276817 0.270355,-0.360646 0.548552,-0.360646 0.199343,0 0.362442,0.05495 0.362442,0.122111 0,0.06716 0.08397,0.12211 0.186609,0.12211 0.102637,0 0.215817,0.07627 0.251514,0.169484 0.09712,0.253621 1.061656,0.480263 1.758385,0.413177 0.494504,-0.04761 0.680759,-0.13391 0.956147,-0.443007 0.380109,-0.426635 0.883296,-0.503532 1.287957,-0.196826 0.130097,0.0986 0.390567,0.179282 0.578822,0.179282 0.188254,0 0.34228,0.05495 0.34228,0.122111 0,0.06716 0.13709,0.12211 0.304643,0.12211 0.167554,0 0.304643,-0.05012 0.304643,-0.111377 0,-0.06126 0.212664,-0.147381 0.472587,-0.191386 0.483732,-0.0819 0.989699,-0.520643 0.989699,-0.858215 0,-0.121077 0.122686,-0.182236 0.365571,-0.182236 0.201065,0 0.365572,0.05274 0.365572,0.117209 0,0.06446 0.233052,0.185426 0.517893,0.268803 0.284841,0.08338 0.557053,0.20922 0.604915,0.279651 0.153798,0.226318 1.286166,0.102811 1.581001,-0.172441 0.146694,-0.13695 0.30529,-0.249001 0.352433,-0.249001 0.04714,0 0.184271,-0.329698 0.304727,-0.732662 0.200175,-0.669646 0.248471,-0.732663 0.561521,-0.732663 0.199675,0 0.34251,0.06616 0.34251,0.158635 0,0.08725 0.205634,0.232368 0.456964,0.322485 0.251331,0.09012 0.496166,0.224793 0.54408,0.299279 0.04791,0.07449 0.377086,0.132781 0.731496,0.129542 0.697265,-0.0064 1.192032,-0.293948 1.192032,-0.692858 0,-0.166688 0.09901,-0.217083 0.4265,-0.217083 0.234575,0 0.4265,0.05495 0.4265,0.122111 0,0.06716 0.191925,0.12211 0.4265,0.12211 0.234575,0 0.4265,-0.04957 0.4265,-0.110164 0,-0.06059 0.164507,-0.167632 0.365571,-0.23787 0.201065,-0.07024 0.365572,-0.181809 0.365572,-0.247937 0,-0.06613 0.106866,-0.154223 0.237481,-0.195763 0.130614,-0.04154 0.275095,-0.196357 0.321067,-0.344033 0.04597,-0.147676 0.14017,-0.30488 0.209328,-0.349342 0.207616,-0.133476 0.150522,-1.15323 -0.07735,-1.381577 -0.111703,-0.111935 -0.203096,-0.391916 -0.203096,-0.622182 l 0,-0.418664 1.035786,0 c 0.599893,0 1.035786,-0.0507 1.035786,-0.120471 0,-0.06626 0.191925,-0.20083 0.4265,-0.299045 0.234575,-0.09822 0.4265,-0.263802 0.4265,-0.36797 0,-0.104169 0.04616,-0.189397 0.102568,-0.189397 0.137213,0 0.384861,-0.8501 0.384861,-1.321108 0,-0.438754 -0.21453,-0.965687 -0.517893,-1.272063 -0.117288,-0.118452 -0.21325,-0.380216 -0.21325,-0.581698 0,-0.325628 0.04062,-0.366331 0.365571,-0.366331 0.201064,0 0.365572,-0.04391 0.365572,-0.09758 0,-0.05367 0.185887,-0.164937 0.413081,-0.247263 0.227195,-0.08233 0.444945,-0.244476 0.483891,-0.360334 0.0835,-0.248418 0.315927,-0.61649 0.549104,-0.86958 0.174393,-0.189286 0.118639,-1.327268 -0.07196,-1.468802 -0.05204,-0.03864 -0.197478,-0.273092 -0.3232,-0.521003 -0.125724,-0.247911 -0.30394,-0.479723 -0.396036,-0.515136 -0.0921,-0.03542 -0.167449,-0.223885 -0.167449,-0.418822 0,-0.332189 0.0375,-0.359418 0.597596,-0.433871 0.480632,-0.06389 0.693907,-0.17595 1.089671,-0.572535 0.270641,-0.271204 0.554333,-0.682133 0.630426,-0.913177 0.07609,-0.231043 0.188934,-0.420078 0.250757,-0.420078 0.06182,0 0.112407,-0.164849 0.112407,-0.366331 0,-0.201482 -0.04889,-0.366331 -0.108646,-0.366331 -0.05976,0 -0.141914,-0.13282 -0.182573,-0.295153 -0.04066,-0.162335 -0.265946,-0.47665 -0.500639,-0.698478 -0.444435,-0.420073 -0.551007,-0.863982 -0.269246,-1.121496 0.235918,-0.215614 0.607958,-0.447316 0.847854,-0.528033 0.117288,-0.03946 0.21325,-0.144652 0.21325,-0.233752 0,-0.0891 0.123381,-0.248597 0.274179,-0.35444 0.230765,-0.161971 0.274179,-0.304628 0.274179,-0.900948 0,-0.511952 -0.05916,-0.767787 -0.21325,-0.922198 -0.117288,-0.117531 -0.21325,-0.268944 -0.21325,-0.336474 0,-0.225621 -0.671744,-0.799326 -1.130604,-0.965597 -0.354251,-0.128365 -0.453539,-0.229375 -0.453539,-0.461408 0,-0.304261 0.537904,-0.874551 0.825148,-0.874828 0.08521,-8.2e-5 0.217396,-0.137523 0.293738,-0.305425 0.07634,-0.167901 0.178168,-0.305276 0.22628,-0.305276 0.296859,0 0.330986,-1.859214 0.03773,-2.055728 -0.06665,-0.04466 -0.15706,-0.178612 -0.200918,-0.297666 -0.04386,-0.119055 -0.176946,-0.253354 -0.295754,-0.298443 -0.118807,-0.04509 -0.288475,-0.153742 -0.37704,-0.241452 -0.09607,-0.09514 -0.452443,-0.15947 -0.883464,-0.15947 l -0.722439,0 0,-0.427386 c 0,-0.235063 0.05484,-0.427386 0.121857,-0.427386 0.06702,0 0.121858,-0.219799 0.121858,-0.488442 0,-0.268643 -0.04382,-0.488441 -0.09738,-0.488441 -0.05356,0 -0.167377,-0.193984 -0.252932,-0.431073 C 74.595095,26.860572 73.94947,26.49781 72.650181,26.49781 l -0.908196,0 0,-0.549496 c 0,-0.357193 0.05331,-0.550152 0.152322,-0.551367 0.103849,-0.0013 0.110201,-0.03042 0.01996,-0.09158 -0.0728,-0.04934 -0.197702,-0.280879 -0.277565,-0.514527 -0.125663,-0.367645 -0.377152,-0.653263 -1.090725,-1.238747 -0.276096,-0.226534 -1.539156,-0.161882 -1.845034,0.09444 -0.148268,0.124248 -0.415768,0.351031 -0.594446,0.503962 -0.211644,0.181148 -0.449832,0.266265 -0.68342,0.244221 -0.293385,-0.02769 -0.377648,-0.108195 -0.463621,-0.44296 -0.05779,-0.225018 -0.211117,-0.523191 -0.340733,-0.662606 -0.129616,-0.139415 -0.265998,-0.349252 -0.303072,-0.466304 -0.04324,-0.136525 -0.25125,-0.243611 -0.580215,-0.298705 -0.282045,-0.04724 -0.553935,-0.147839 -0.604201,-0.223565 -0.0665,-0.100184 -0.116285,-0.100908 -0.182786,-0.0027 -0.05027,0.07426 -0.283318,0.170967 -0.517893,0.214896 -0.254848,0.04772 -0.592779,0.251395 -0.839649,0.506055 -0.480591,0.495752 -1.043624,0.584104 -1.170454,0.183669 -0.13155,-0.415338 -0.829146,-1.012775 -1.308619,-1.120729 -0.699024,-0.157387 -1.472116,0.06666 -1.977494,0.573088 -0.237088,0.237581 -0.43107,0.485083 -0.43107,0.550005 0,0.217626 -0.733512,0.132014 -0.819542,-0.09565 -0.04441,-0.117531 -0.151152,-0.285092 -0.237201,-0.372359 -0.08605,-0.08727 -0.198788,-0.22464 -0.250533,-0.305276 -0.125124,-0.194985 -0.59333,-0.451885 -0.82357,-0.451885 -0.101442,0 -0.18444,-0.05495 -0.18444,-0.12211 0,-0.06716 -0.24676,-0.122111 -0.548357,-0.122111 -0.301596,0 -0.548357,0.04615 -0.548357,0.102566 0,0.05641 -0.219343,0.175105 -0.487429,0.263765 -0.268085,0.08866 -0.487428,0.232897 -0.487428,0.320525 0,0.181904 -0.374791,0.412138 -0.670908,0.412138 -0.27935,0 -0.478221,-0.234642 -0.617797,-0.728918 -0.09534,-0.337622 -0.217893,-0.46053 -0.60357,-0.605317 -0.266166,-0.09992 -0.502218,-0.225244 -0.524558,-0.278493 -0.05892,-0.140437 -0.385882,-0.119005 -0.385882,0.02529 0,0.06716 -0.150798,0.122449 -0.335107,0.122862 -0.540173,0.0012 -1.49275,0.602473 -1.49275,0.942214 0,0.08582 -0.05272,0.156027 -0.117161,0.156027 -0.06444,0 -0.176222,0.219799 -0.24841,0.488442 -0.1115,0.414938 -0.180177,0.488441 -0.456374,0.488441 -0.221887,0 -0.445581,-0.139681 -0.704495,-0.439906 -0.306154,-0.355004 -0.487968,-0.452173 -0.942038,-0.503459 -0.717794,-0.08107 -1.716388,0.25988 -1.929426,0.658772 -0.0836,0.156526 -0.193205,0.284593 -0.243576,0.284593 -0.05037,0 -0.127716,0.164849 -0.171877,0.366331 -0.0662,0.302034 -0.140966,0.366332 -0.425969,0.366332 -0.264426,0 -0.382529,-0.08343 -0.502472,-0.354964 -0.105579,-0.239017 -0.304867,-0.403932 -0.610111,-0.504881 -0.585125,-0.19351 -1.683527,-0.09269 -1.876875,0.172282 -0.07991,0.109517 -0.206533,0.199121 -0.281377,0.199121 -0.07484,0 -0.225902,0.137374 -0.335688,0.305276 -0.256322,0.392009 -0.892656,0.431282 -0.989272,0.06105 -0.03505,-0.134321 -0.144725,-0.244221 -0.243714,-0.244221 -0.09899,0 -0.208661,-0.109899 -0.243715,-0.24422 -0.03505,-0.134322 -0.101833,-0.244221 -0.1484,-0.244221 -0.04657,0 -0.19398,-0.102053 -0.327586,-0.226784 -0.341199,-0.318535 -1.30286,-0.450818 -1.541182,-0.212 -0.10017,0.100378 -0.332806,0.220403 -0.51697,0.266721 -0.184163,0.04632 -0.423839,0.241007 -0.532614,0.432642 -0.135179,0.238158 -0.294183,0.348081 -0.502413,0.347331 -0.423505,-0.0015 -0.534899,-0.103569 -0.77213,-0.707303 -0.257615,-0.655613 -0.716583,-1.092704 -1.253353,-1.193612 -0.226413,-0.04256 -0.41166,-0.126223 -0.41166,-0.185909 0,-0.05969 -0.191925,-0.108521 -0.4265,-0.108521 -0.234575,0 -0.4265,0.0539 -0.4265,0.119784 0,0.06588 -0.138536,0.154627 -0.307858,0.197212 -0.169321,0.04258 -0.363175,0.181006 -0.430786,0.307602 -0.231344,0.433166 -1.089213,0.258347 -1.089213,-0.221963 0,-0.314075 -0.345217,-1.039334 -0.533125,-1.120033 -0.05864,-0.02519 -0.223151,-0.16256 -0.365572,-0.305276 -0.230272,-0.230751 -0.383763,-0.257207 -1.386125,-0.238913 l -1.127178,0.02057 0,-0.368449 c 0,-0.440542 -0.309532,-1.131916 -0.666965,-1.489739 -0.405498,-0.405942 -0.869268,-0.564109 -1.654055,-0.564109 -0.62414,0 -0.725409,-0.03149 -0.725409,-0.225537 0,-0.124045 -0.111164,-0.353977 -0.247033,-0.510959 -0.135868,-0.156983 -0.275865,-0.40054 -0.311105,-0.541239 -0.03524,-0.140698 -0.239381,-0.333248 -0.453646,-0.427889 -0.214265,-0.09464 -0.468047,-0.250163 -0.56396,-0.345606 -0.202605,-0.201615 -1.251543,-0.133941 -1.324523,0.08545 -0.08399,0.252482 -0.735138,0.143372 -1.054552,-0.176706 -0.1706,-0.170954 -0.310181,-0.363278 -0.310181,-0.427386 0,-0.06411 -0.0445,-0.11656 -0.09888,-0.11656 -0.05438,0 -0.221095,-0.114097 -0.370469,-0.25355 -0.371942,-0.347236 -1.476073,-0.46597 -1.752962,-0.188506 -0.108585,0.10881 -0.246088,0.197835 -0.305564,0.197835 -0.172039,0 -0.884126,0.85899 -0.884126,1.066521 0,0.157234 -0.115314,0.174697 -0.700679,0.106114 -0.385373,-0.04515 -0.718957,-0.135142 -0.741298,-0.199978 -0.04824,-0.13999 -0.629595,-0.160704 -0.629595,-0.02243 0,0.0525 -0.24676,0.168463 -0.548357,0.257699 -0.301596,0.08923 -0.548357,0.228697 -0.548357,0.309913 0,0.08122 -0.137089,0.267112 -0.304643,0.413101 -0.167554,0.145988 -0.304643,0.385533 -0.304643,0.53232 0,0.146787 -0.06385,0.443824 -0.141887,0.660081 -0.139446,0.386433 -0.156909,0.393956 -1.015362,0.437396 -0.608546,0.03079 -0.935328,0.106182 -1.077406,0.248554 -0.112162,0.112395 -0.313278,0.239132 -0.446924,0.281638 -0.1336464,0.04251 -0.2429924,0.15208 -0.2429924,0.243498 0,0.09142 -0.074475,0.240844 -0.1655003,0.332059 -0.3704263,0.371196 -0.5016542,1.0366 -0.3486199,1.767712 0.07974,0.380951 0.1881779,0.723853 0.2409725,0.762005 0.052795,0.03815 0.1875381,0.213729 0.2994286,0.390172 0.1118917,0.176443 0.3503005,0.357743 0.5297995,0.402888 0.179498,0.04514 0.402644,0.158524 0.495881,0.251955 0.09324,0.09343 0.415628,0.206856 0.716422,0.252056 0.300796,0.0452 0.546902,0.123815 0.546902,0.174698 0,0.05088 0.263214,0.127503 0.584922,0.170268 0.437868,0.05821 0.698271,0.184891 1.035786,0.503905 0.400595,0.378639 0.450864,0.492798 0.450864,1.023907 0,0.418691 -0.05476,0.61881 -0.182786,0.668042 -0.100532,0.03866 -0.182785,0.148479 -0.182785,0.244047 0,0.09557 -0.13709,0.208239 -0.304643,0.250379 -0.167554,0.04214 -0.304643,0.137959 -0.304643,0.212929 0,0.07497 -0.134872,0.261564 -0.299715,0.414653 -0.164842,0.153088 -0.337793,0.434137 -0.384334,0.624554 -0.04654,0.190416 -0.129199,0.375806 -0.183684,0.411977 -0.263214,0.174739 -0.397593,1.834447 -0.267389,3.302507 0.07239,0.816193 0.17964,1.518696 0.238335,1.56112 0.0587,0.04242 0.212435,0.379355 0.341642,0.748739 0.129209,0.369384 0.312939,0.750196 0.40829,0.846251 0.129852,0.130809 0.153697,0.348844 0.095,0.868702 -0.08483,0.751335 0.175697,1.802078 0.492155,1.984953 0.09294,0.05371 0.168981,0.17332 0.168981,0.265805 0,0.177805 0.643666,0.552373 0.949213,0.552373 0.145089,0 0.165196,0.112815 0.102197,0.573398 -0.04314,0.31537 -0.140331,0.611735 -0.215988,0.658592 -0.07566,0.04686 -0.163948,0.3604 -0.196201,0.696766 -0.05092,0.531059 -0.02467,0.629794 0.199425,0.749974 0.141937,0.07612 0.258068,0.195644 0.258068,0.265608 0,0.188295 0.619768,0.761039 1.011055,0.934343 0.187462,0.08303 0.639857,0.150961 1.005321,0.150961 l 0.664481,0 0,0.488441 c 0,0.268643 -0.05484,0.488442 -0.121857,0.488442 -0.06702,0 -0.121857,0.137374 -0.121857,0.305276 0,0.167902 0.04346,0.305276 0.09658,0.305276 0.05312,0 0.162581,0.247273 0.243246,0.549496 0.0931,0.348817 0.214985,0.549497 0.333741,0.549497 0.102894,0 0.218643,0.08243 0.25722,0.183166 0.03858,0.100741 0.136189,0.183165 0.216913,0.183165 0.08072,0 0.264489,0.1099 0.408368,0.244221 0.143878,0.134321 0.346143,0.244221 0.449477,0.244221 0.103334,0 0.187881,0.08164 0.187881,0.181413 0,0.325422 -0.291781,1.283911 -0.390845,1.283911 -0.05312,0 -0.09658,0.137374 -0.09658,0.305276 0,0.167902 0.04783,0.305276 0.106283,0.305276 0.05846,0 0.141693,0.221901 0.184972,0.493115 0.04328,0.271213 0.157871,0.523562 0.25465,0.560777 0.09678,0.03721 0.208271,0.169675 0.247762,0.294357 0.03949,0.124682 0.192376,0.264386 0.339745,0.310453 0.14737,0.04607 0.304446,0.140782 0.349057,0.210476 0.04461,0.06969 0.358953,0.120374 0.698537,0.112623 l 0.617424,-0.01409 -0.07472,0.885773 -0.07472,0.885773 0.536637,0.569273 c 0.29515,0.3131 0.713588,0.631086 0.929863,0.706636 0.216273,0.07555 0.393224,0.186939 0.393224,0.24753 0,0.06059 0.250081,0.110164 0.555736,0.110164 l 0.555735,0 -0.08,0.824245 c -0.07468,0.76936 -0.05895,0.848639 0.236186,1.190576 0.173904,0.201482 0.316257,0.407544 0.316338,0.457914 8.2e-5,0.05037 0.0824,0.09158 0.182935,0.09158 0.100532,0 0.182785,0.04748 0.182785,0.10552 0,0.05804 0.248896,0.200773 0.553103,0.317192 0.434032,0.166103 0.735522,0.193313 1.40047,0.126396 0.685952,-0.06903 0.860354,-0.05136 0.915542,0.09275 0.182963,0.477787 2.230847,0.614717 2.554759,0.17082 0.08112,-0.111172 0.201676,-0.202129 0.267897,-0.202129 0.06622,0 0.206564,-0.219799 0.31187,-0.488442 0.156338,-0.398823 0.250759,-0.488441 0.514618,-0.488441 0.378201,0 0.523245,0.135081 0.854099,0.795427 0.217011,0.433127 0.642141,0.918156 1.202591,1.372032 0.203358,0.164687 1.295481,0.213832 1.295481,0.0583 0,-0.05189 0.191925,-0.197915 0.4265,-0.324504 0.234575,-0.12659 0.4265,-0.276459 0.4265,-0.333044 0,-0.05658 0.164507,-0.102882 0.365571,-0.102882 0.284333,0 0.365572,0.05427 0.365572,0.244221 0,0.134321 0.08032,0.244221 0.178498,0.244221 0.09817,0 0.231902,0.09999 0.297172,0.222205 0.06527,0.122213 0.343619,0.296598 0.618552,0.387522 0.417681,0.138134 0.662891,0.13879 1.491252,0.004 l 0.991375,-0.161331 0.25726,0.323305 c 0.141493,0.177818 0.321019,0.323305 0.398948,0.323305 0.07793,0 0.185541,0.06985 0.239138,0.15521 0.366446,0.583652 1.841392,0.582962 2.451902,-0.0011 0.25562,-0.244565 0.88691,-0.194932 0.957424,0.07527 0.06432,0.246484 0.517346,0.503327 0.887772,0.503327 0.125305,0 0.250447,0.068 0.278094,0.151118 0.05914,0.177777 1.054317,0.183927 1.171992,0.0072 0.234554,-0.352212 1.478907,-0.690944 1.478907,-0.402622 0,0.06716 0.07953,0.12211 0.176731,0.12211 0.0972,0 0.226382,0.08891 0.287067,0.197571 0.06068,0.108664 0.378715,0.269804 0.706734,0.358089 0.748943,0.201577 0.747153,0.20151 1.29688,0.04853 z M 9.1074107,35.106592 c -0.083434,-0.100741 -0.2235433,-0.183166 -0.3113524,-0.183166 -0.2124445,0 -0.3775816,-0.522892 -0.1854093,-0.587082 0.1729044,-0.05776 0.6186188,-0.521816 0.6186188,-0.644084 0,-0.04737 -0.4903885,-0.125015 -1.0897526,-0.172551 -1.0853756,-0.08608 -1.0900744,-0.0879 -1.1697933,-0.451612 -0.097589,-0.445245 0.037491,-1.441651 0.1954406,-1.441651 0.062915,0 0.1143909,-0.109838 0.1143909,-0.244084 0,-0.134247 0.299375,-0.560107 0.6652767,-0.946355 0.9584272,-1.011723 1.2841197,-1.414325 1.2842891,-1.587572 8.16e-5,-0.08395 0.052411,-0.152638 0.1162882,-0.152638 0.063878,0 0.2128808,-0.206061 0.33112,-0.457914 0.118238,-0.251852 0.3127367,-0.564437 0.4322166,-0.694632 0.119481,-0.130195 0.217238,-0.308782 0.217238,-0.396859 0,-0.08808 0.055,-0.16014 0.122219,-0.16014 0.06722,0 0.217246,-0.219799 0.333389,-0.488442 0.116143,-0.268642 0.253069,-0.488441 0.304281,-0.488441 0.05121,0 0.09311,-0.247274 0.09311,-0.549497 0,-0.302223 -0.05483,-0.549496 -0.121857,-0.549496 -0.06702,0 -0.121857,-0.171251 -0.121857,-0.380557 l 0,-0.380556 0.822536,0.08708 c 0.452394,0.04789 0.840814,0.136717 0.863154,0.197391 0.02234,0.06067 0.13351,0.110315 0.247044,0.110315 0.270151,0 0.86998,0.689745 0.86998,1.000393 0,0.247757 -0.437753,0.69776 -0.685895,0.705089 -0.07565,0.0022 -0.206546,0.171012 -0.290891,0.375061 -0.08434,0.204049 -0.251047,0.42339 -0.37045,0.487425 -0.119403,0.06404 -0.253329,0.281735 -0.297613,0.483775 -0.04428,0.202041 -0.123423,0.367347 -0.175868,0.367347 -0.166828,0 -0.372744,1.347004 -0.371786,2.432045 0.0011,1.288155 0.197776,3.081287 0.348293,3.176039 0.0612,0.03853 0.180851,0.303584 0.265889,0.589017 0.08504,0.285433 0.200768,0.518969 0.257181,0.518969 0.05641,0 0.102569,0.101672 0.102569,0.225936 0,0.197607 -0.139857,0.235883 -1.115435,0.305276 -1.6912241,0.120296 -2.1272741,0.100582 -2.2965653,-0.103825 z m 2.9062513,-0.247397 c 0.06778,-0.06604 -0.249464,-0.96635 -0.367795,-1.043756 -0.158122,-0.103435 -0.343045,-1.941507 -0.344103,-3.420259 -9.75e-4,-1.290673 0.191563,-2.676266 0.371786,-2.676266 0.05244,0 0.131585,-0.165306 0.175868,-0.367347 0.04428,-0.20204 0.17821,-0.419738 0.297613,-0.483774 0.119403,-0.06404 0.286106,-0.283377 0.370451,-0.487426 0.08435,-0.204049 0.215245,-0.372826 0.290891,-0.375061 0.07564,-0.0022 0.260549,-0.106905 0.410896,-0.232601 l 0.273359,-0.228538 -0.330959,-0.377951 c -0.182027,-0.207873 -0.423849,-0.377951 -0.537382,-0.377951 -0.113533,0 -0.224703,-0.04646 -0.247043,-0.103249 -0.05971,-0.151771 -1.198262,-0.283498 -1.198262,-0.138635 0,0.06588 0.05484,0.119774 0.121857,0.119774 0.06874,0 0.121858,0.345979 0.121858,0.793717 0,0.436545 -0.0419,0.793718 -0.09311,0.793718 -0.05121,0 -0.188137,0.219798 -0.30428,0.488441 -0.116144,0.268643 -0.266169,0.488442 -0.333389,0.488442 -0.06722,0 -0.12222,0.07206 -0.12222,0.16014 0,0.08808 -0.09776,0.266664 -0.217238,0.396859 -0.11948,0.130195 -0.313978,0.442779 -0.4322163,0.694632 -0.1182392,0.251853 -0.2672424,0.457914 -0.33112,0.457914 -0.063878,0 -0.1162066,0.06869 -0.1162882,0.152638 -1.219e-4,0.173246 -0.3258619,0.575849 -1.2842891,1.587571 -0.3659017,0.386249 -0.6652767,0.812109 -0.6652767,0.946356 0,0.134245 -0.047981,0.244084 -0.106625,0.244084 -0.1473704,0 -0.2728576,0.695663 -0.1871872,1.037708 0.064734,0.258458 0.1582729,0.288159 1.1569776,0.367367 1.0840107,0.08597 1.086549,0.08696 1.086549,0.422893 0,0.200994 -0.1294915,0.466476 -0.3212605,0.658643 -0.2266458,0.227117 -0.2669281,0.321927 -0.1367774,0.321927 0.1014644,0 0.2579095,0.08866 0.3476548,0.19702 0.1396069,0.168565 0.3397634,0.184562 1.385814,0.110755 0.672452,-0.04745 1.241815,-0.104951 1.265249,-0.127785 z"
     id="path2818" />
</svg>
