<?xml version="1.0" encoding="UTF-8" standalone="no"?>
<!-- Created with Inkscape (http://www.inkscape.org/) -->

<svg
   xmlns:dc="http://purl.org/dc/elements/1.1/"
   xmlns:cc="http://creativecommons.org/ns#"
   xmlns:rdf="http://www.w3.org/1999/02/22-rdf-syntax-ns#"
   xmlns:svg="http://www.w3.org/2000/svg"
   xmlns="http://www.w3.org/2000/svg"
   xmlns:sodipodi="http://sodipodi.sourceforge.net/DTD/sodipodi-0.dtd"
   xmlns:inkscape="http://www.inkscape.org/namespaces/inkscape"
   id="svg2"
   version="1.1"
   inkscape:version="0.47pre4 r22446"
   width="85"
   height="86"
   sodipodi:docname="Coff.jpg">
  <metadata
     id="metadata8">
    <rdf:RDF>
      <cc:Work
         rdf:about="">
        <dc:format>image/svg+xml</dc:format>
        <dc:type
           rdf:resource="http://purl.org/dc/dcmitype/StillImage" />
        <dc:title></dc:title>
      </cc:Work>
    </rdf:RDF>
  </metadata>
  <defs
     id="defs6">
    <inkscape:perspective
       sodipodi:type="inkscape:persp3d"
       inkscape:vp_x="0 : 0.5 : 1"
       inkscape:vp_y="0 : 1000 : 0"
       inkscape:vp_z="1 : 0.5 : 1"
       inkscape:persp3d-origin="0.5 : 0.33333333 : 1"
       id="perspective10" />
  </defs>
  <sodipodi:namedview
     pagecolor="#ffffff"
     bordercolor="#666666"
     borderopacity="1"
     objecttolerance="10"
     gridtolerance="10"
     guidetolerance="10"
     inkscape:pageopacity="0"
     inkscape:pageshadow="2"
     inkscape:window-width="1680"
     inkscape:window-height="972"
     id="namedview4"
     showgrid="false"
     inkscape:zoom="2.744186"
     inkscape:cx="-21.817797"
     inkscape:cy="43"
     inkscape:window-x="0"
     inkscape:window-y="27"
     inkscape:window-maximized="1"
     inkscape:current-layer="svg2" />
  <path
     sodipodi:type="arc"
     style="fill:#939bfe;fill-opacity:1;fill-rule:evenodd;stroke:#0110ca;stroke-width:3.00228500000000009;stroke-linecap:square;stroke-miterlimit:4;stroke-opacity:1;stroke-dasharray:none"
     id="path2820"
     sodipodi:cx="24.597458"
     sodipodi:cy="38.991524"
     sodipodi:rx="35.165253"
     sodipodi:ry="34.983051"
     d="m 59.762711,38.991524 a 35.165253,34.983051 0 1 1 -70.330506,0 35.165253,34.983051 0 1 1 70.330506,0 z"
     transform="matrix(1.1627547,0,0,1.1688107,13.89919,-2.5737102)" />
  <path
     style="fill:#000000"
     d="m 13.621192,73.167298 c -1.405307,-1.011345 -3.152197,-5.86284 -3.8077311,-10.574906 -0.55992,-4.024779 2.4360661,-15.52076 4.9993241,-19.183045 0.770886,-1.101412 3.517411,-2.677568 6.103389,-3.502568 4.168649,-1.329917 4.70518,-1.830159 4.731785,-4.411747 0.02373,-2.302471 0.629639,-3.112654 2.895661,-3.871885 2.018026,-0.67614 3.077257,-0.617758 3.581038,0.197377 0.776268,1.256029 3.053308,-5.240799 3.053308,-8.71167 0,-4.590933 14.269045,-10.915312 26.379946,-11.692218 9.459567,-0.606825 11.256456,0.316141 10.177689,5.227734 -0.48073,2.188749 -1.786866,3.355835 -5.838452,5.216893 -6.627919,3.044472 -11.719183,6.749864 -11.719183,8.529151 0,0.760018 -1.097584,3.547071 -2.439076,6.193451 -2.817925,5.558959 -3.2388,5.028657 7.439076,9.37323 7.52114,3.060173 8.73794,5.74264 3.25,7.164708 -2.880788,0.746487 -3.25,1.236525 -3.25,4.313568 0,4.92955 -1.769761,4.478604 -9.558898,-2.435668 l -6.6545,-5.907076 -6.096853,2.883355 c -7.887454,3.730176 -9.958724,5.935226 -13.555284,14.430797 -2.598762,6.138633 -3.312335,7.032057 -5.798941,7.260519 -1.559538,0.143285 -3.311072,-0.08172 -3.892298,-0.5 z M 20.505598,62.01862 c 0.877763,-4.388815 6.282282,-10.206034 11.900084,-12.8088 2.875303,-1.332147 5.462827,-2.780392 5.750054,-3.218321 0.287226,-0.437929 2.222235,-1.108881 4.30002,-1.491004 2.077784,-0.382123 3.515226,-1.119606 3.194315,-1.638851 -0.626936,-1.014403 2.69738,-11.349558 5.387087,-16.748224 0.976659,-1.960309 2.652731,-3.534999 4.140808,-3.89034 4.864006,-1.161487 7.961843,-3.252161 7.315319,-4.936977 -0.489788,-1.276365 -1.651168,-1.505424 -5.673312,-1.118947 -2.781598,0.267276 -5.226477,0.993032 -5.433063,1.61279 -0.206586,0.619758 -1.125611,1.136716 -2.042277,1.148795 -0.916667,0.01208 -3.579167,0.890078 -5.916667,1.951108 -3.341475,1.516752 -4.25,2.460108 -4.25,4.412938 0,1.366086 -0.432805,3.622157 -0.961789,5.013491 -0.61572,1.619464 -0.61572,2.743581 0,3.124116 0.528984,0.326931 0.961789,1.467861 0.961789,2.535402 0,1.617518 -0.709837,1.940983 -4.259453,1.940983 -3.14283,0 -4.579313,0.512177 -5.479586,1.953742 -0.671072,1.074558 -3.059892,2.504948 -5.308487,3.178643 -4.459626,1.336137 -7.932141,4.923664 -7.987909,8.252474 -0.01949,1.163327 -0.659529,3.240141 -1.422309,4.615141 -1.218067,2.195707 -1.214234,5.731927 0.01056,9.743924 0.664359,2.176206 5.18135,-0.664765 5.774814,-3.632083 z m -8.665351,-4.361841 c -0.277413,-0.6875 -0.504386,-0.125 -0.504386,1.25 0,1.375 0.226973,1.9375 0.504386,1.25 0.277412,-0.6875 0.277412,-1.8125 0,-2.5 z M 51.405513,47.08791 c -2.432728,-1.275378 -4.698279,-2.043732 -5.034557,-1.707455 -0.336278,0.336278 1.395231,2.346329 3.847798,4.46678 4.246527,3.67148 4.486653,3.752918 5.034557,1.707454 0.472777,-1.765002 -0.21317,-2.561295 -3.847798,-4.466779 z M 68.177966,15.906779 c 0,-1.1 -0.407871,-2 -0.90638,-2 -0.49851,0 -0.671025,0.9 -0.383369,2 0.287656,1.1 0.695528,2 0.90638,2 0.210853,0 0.383369,-0.9 0.383369,-2 z"
     id="path2818" />
</svg>
