<?xml version="1.0" encoding="UTF-8" standalone="no"?>
<!-- Created with Inkscape (http://www.inkscape.org/) -->

<svg
   xmlns:dc="http://purl.org/dc/elements/1.1/"
   xmlns:cc="http://creativecommons.org/ns#"
   xmlns:rdf="http://www.w3.org/1999/02/22-rdf-syntax-ns#"
   xmlns:svg="http://www.w3.org/2000/svg"
   xmlns="http://www.w3.org/2000/svg"
   xmlns:sodipodi="http://sodipodi.sourceforge.net/DTD/sodipodi-0.dtd"
   xmlns:inkscape="http://www.inkscape.org/namespaces/inkscape"
   id="svg2"
   version="1.1"
   inkscape:version="0.47pre4 r22446"
   width="85"
   height="86"
   sodipodi:docname="Con.svg">
  <metadata
     id="metadata8">
    <rdf:RDF>
      <cc:Work
         rdf:about="">
        <dc:format>image/svg+xml</dc:format>
        <dc:type
           rdf:resource="http://purl.org/dc/dcmitype/StillImage" />
        <dc:title />
      </cc:Work>
    </rdf:RDF>
  </metadata>
  <defs
     id="defs6">
    <inkscape:perspective
       sodipodi:type="inkscape:persp3d"
       inkscape:vp_x="0 : 0.5 : 1"
       inkscape:vp_y="0 : 1000 : 0"
       inkscape:vp_z="1 : 0.5 : 1"
       inkscape:persp3d-origin="0.5 : 0.33333333 : 1"
       id="perspective10" />
    <inkscape:perspective
       id="perspective2821"
       inkscape:persp3d-origin="0.5 : 0.33333333 : 1"
       inkscape:vp_z="1 : 0.5 : 1"
       inkscape:vp_y="0 : 1000 : 0"
       inkscape:vp_x="0 : 0.5 : 1"
       sodipodi:type="inkscape:persp3d" />
  </defs>
  <sodipodi:namedview
     pagecolor="#ffffff"
     bordercolor="#666666"
     borderopacity="1"
     objecttolerance="10"
     gridtolerance="10"
     guidetolerance="10"
     inkscape:pageopacity="0"
     inkscape:pageshadow="2"
     inkscape:window-width="1680"
     inkscape:window-height="972"
     id="namedview4"
     showgrid="false"
     inkscape:zoom="2.744186"
     inkscape:cx="-66.457627"
     inkscape:cy="42.999999"
     inkscape:window-x="0"
     inkscape:window-y="27"
     inkscape:window-maximized="1"
     inkscape:current-layer="svg2" />
  <path
     sodipodi:type="arc"
     style="fill:#0000ff;fill-opacity:1;fill-rule:evenodd;stroke:#0110ca;stroke-width:3.00228500000000009;stroke-linecap:square;stroke-miterlimit:4;stroke-opacity:1;stroke-dasharray:none"
     id="path2820"
     sodipodi:cx="24.597458"
     sodipodi:cy="38.991524"
     sodipodi:rx="35.165253"
     sodipodi:ry="34.983051"
     d="m 59.762711,38.991524 a 35.165253,34.983051 0 1 1 -70.330506,0 35.165253,34.983051 0 1 1 70.330506,0 z"
     transform="matrix(1.1627547,0,0,1.1688107,13.89919,-2.5737102)" />
  <path
     style="fill:#000000"
     d="m 20.027573,67.240932 c -1.158581,-0.798925 -2.598775,-4.631426 -3.139219,-8.353784 -0.461616,-3.179426 2.008374,-12.260826 4.121608,-15.153895 0.635544,-0.870075 2.899869,-2.11518 5.031835,-2.766899 3.436772,-1.050585 3.879105,-1.445758 3.901039,-3.485117 0.01956,-1.818867 0.519096,-2.458881 2.387279,-3.058646 1.663727,-0.534125 2.536992,-0.488006 2.952326,0.155921 0.63998,0.992216 2.517247,-4.140037 2.517247,-6.881896 0,-3.626667 11.763871,-8.622692 21.748497,-9.236419 7.798779,-0.479369 9.280193,0.24974 8.390822,4.129716 -0.396329,1.729031 -1.473151,2.650986 -4.813412,4.121153 -5.464275,2.405019 -9.661681,5.332141 -9.661681,6.737712 0,0.600386 -0.904884,2.802055 -2.010854,4.892597 -2.32319,4.391372 -2.670174,3.972453 6.133019,7.404504 6.200676,2.417424 7.203846,4.536473 2.679407,5.659855 -2.375016,0.589697 -2.679407,0.976808 -2.679407,3.407558 0,3.894162 -1.459049,3.537932 -7.88067,-1.924087 l -5.486189,-4.666371 -5.026447,2.277743 c -6.502677,2.946701 -8.2103,4.688609 -11.175423,11.399796 -2.142505,4.849292 -2.730798,5.555064 -4.780838,5.735541 -1.285734,0.11319 -2.729757,-0.06456 -3.208939,-0.394982 z m 5.675732,-8.807043 c 0.723656,-3.467001 5.17932,-8.062388 9.810821,-10.118477 2.370495,-1.052347 4.503735,-2.196407 4.740534,-2.542355 0.236799,-0.345947 1.832084,-0.875975 3.545078,-1.177838 1.712994,-0.301863 2.898068,-0.884447 2.633499,-1.294631 -0.516867,-0.801341 2.223809,-8.965731 4.441292,-13.230477 0.80519,-1.548571 2.186999,-2.792517 3.413818,-3.073223 4.010047,-0.917532 6.564006,-2.569087 6.03099,-3.900029 -0.403797,-1.008282 -1.361277,-1.18923 -4.677265,-0.883927 -2.293241,0.211138 -4.30888,0.784458 -4.479196,1.274044 -0.170316,0.489586 -0.927991,0.897964 -1.683721,0.907506 -0.75573,0.0095 -2.950783,0.703128 -4.877895,1.541303 -2.754822,1.198178 -3.50384,1.943394 -3.50384,3.486056 0,1.079158 -0.356819,2.86137 -0.79293,3.960473 -0.50762,1.279316 -0.50762,2.167327 0,2.467936 0.436111,0.258263 0.79293,1.159555 0.79293,2.002873 0,1.27778 -0.585213,1.533305 -3.511633,1.533305 -2.591053,0 -3.775337,0.404601 -4.517552,1.543384 -0.553253,0.848861 -2.522675,1.978816 -4.376491,2.51101 -3.676663,1.055499 -6.539519,3.889512 -6.585496,6.519149 -0.01607,0.918985 -0.543737,2.559591 -1.172598,3.64579 -1.004215,1.734528 -1.001055,4.52801 0.0087,7.69734 0.547719,1.719122 4.271676,-0.52514 4.760947,-2.869212 z m -7.144001,-3.445692 c -0.228709,-0.5431 -0.415833,-0.09875 -0.415833,0.987453 0,1.086199 0.187124,1.530554 0.415833,0.987454 0.228707,-0.5431 0.228707,-1.431808 0,-1.974907 z m 32.618909,-8.349016 c -2.005621,-1.007501 -3.873416,-1.614472 -4.150655,-1.348826 -0.277239,0.265647 1.150275,1.853513 3.172252,3.528591 3.500976,2.900333 3.698944,2.964666 4.150654,1.348825 0.389773,-1.394286 -0.175744,-2.023328 -3.172251,-3.52859 z M 65.005976,22.007244 c 0,-0.86896 -0.336263,-1.579926 -0.74725,-1.579926 -0.410988,0 -0.553215,0.710966 -0.316062,1.579926 0.237153,0.868959 0.573416,1.579926 0.74725,1.579926 0.173834,0 0.316062,-0.710967 0.316062,-1.579926 z"
     id="path2818-4" />
</svg>
