<?xml version="1.0" encoding="UTF-8" standalone="no"?>
<!-- Created with Inkscape (http://www.inkscape.org/) -->

<svg
   xmlns:dc="http://purl.org/dc/elements/1.1/"
   xmlns:cc="http://creativecommons.org/ns#"
   xmlns:rdf="http://www.w3.org/1999/02/22-rdf-syntax-ns#"
   xmlns:svg="http://www.w3.org/2000/svg"
   xmlns="http://www.w3.org/2000/svg"
   xmlns:sodipodi="http://sodipodi.sourceforge.net/DTD/sodipodi-0.dtd"
   xmlns:inkscape="http://www.inkscape.org/namespaces/inkscape"
   id="svg2"
   version="1.1"
   inkscape:version="0.47pre4 r22446"
   width="85.300079"
   height="85.300072"
   sodipodi:docname="Don.svg">
  <metadata
     id="metadata8">
    <rdf:RDF>
      <cc:Work
         rdf:about="">
        <dc:format>image/svg+xml</dc:format>
        <dc:type
           rdf:resource="http://purl.org/dc/dcmitype/StillImage" />
        <dc:title />
      </cc:Work>
    </rdf:RDF>
  </metadata>
  <defs
     id="defs6">
    <inkscape:perspective
       sodipodi:type="inkscape:persp3d"
       inkscape:vp_x="0 : 0.5 : 1"
       inkscape:vp_y="0 : 1000 : 0"
       inkscape:vp_z="1 : 0.5 : 1"
       inkscape:persp3d-origin="0.5 : 0.33333333 : 1"
       id="perspective10" />
    <inkscape:perspective
       id="perspective2824"
       inkscape:persp3d-origin="0.5 : 0.33333333 : 1"
       inkscape:vp_z="1 : 0.5 : 1"
       inkscape:vp_y="0 : 1000 : 0"
       inkscape:vp_x="0 : 0.5 : 1"
       sodipodi:type="inkscape:persp3d" />
  </defs>
  <sodipodi:namedview
     pagecolor="#ffffff"
     bordercolor="#666666"
     borderopacity="1"
     objecttolerance="10"
     gridtolerance="10"
     guidetolerance="10"
     inkscape:pageopacity="0"
     inkscape:pageshadow="2"
     inkscape:window-width="1680"
     inkscape:window-height="972"
     id="namedview4"
     showgrid="false"
     inkscape:zoom="14.384512"
     inkscape:cx="18.109756"
     inkscape:cy="45.605035"
     inkscape:window-x="0"
     inkscape:window-y="27"
     inkscape:window-maximized="1"
     inkscape:current-layer="svg2" />
  <path
     sodipodi:type="arc"
     style="fill:#ffff00;fill-opacity:1;fill-rule:evenodd;stroke:#ffff00;stroke-width:1.92308485999999990;stroke-linecap:square;stroke-miterlimit:4;stroke-opacity:1;stroke-dasharray:none"
     id="path2822"
     sodipodi:cx="34.21833"
     sodipodi:cy="38.994312"
     sodipodi:rx="24.901979"
     sodipodi:ry="20.278828"
     d="m 59.12031,38.994312 a 24.901979,20.278828 0 1 1 -49.8039591,0 24.901979,20.278828 0 1 1 49.8039591,0 z"
     transform="matrix(1.6402244,-0.09464251,0.10381647,2.0134729,-17.523953,-32.625445)" />
  <g
     transform="translate(15.15004,15.150036)"
     id="layer1"
     style="fill:#000000;fill-opacity:1;stroke:#000000;stroke-opacity:1">
    <path
       style="fill:#000000;stroke:#000000;fill-opacity:1;stroke-opacity:1"
       d="m 12.15693,49.038334 c -0.1816,-0.473259 0.26637,-1.143132 1.40584,-2.102224 1.83293,-1.542778 1.83464,-1.506631 -0.11808,-2.499359 -1.90487,-0.968397 -2.0937,-1.999217 -0.80849,-4.413483 l 1.08668,-2.041311 -1.81444,-0.706401 c -1.98897,-0.774353 -1.71191,-0.903548 -3.9753697,1.853769 -0.39983,0.487067 -1.21735,0.749749 -2.33336,0.749749 -1.49513,0 -1.71825,-0.125005 -1.72055,-0.963963 -0.00145,-0.53018 -0.30755,-1.542342 -0.68023,-2.249248 -0.46577,-0.88349 -0.59977,-1.866708 -0.42863,-3.145178 0.23072,-1.723572 0.13927,-1.957012 -1.24769,-3.184933 -2.3665,-2.095141 -2.04303,-2.594497 1.45322,-2.243382 1.96985,0.197824 3.04578,0.141102 3.2385,-0.170732 0.15873,-0.256838 0.9038,-0.47311 1.65571,-0.480604 0.75192,-0.0075 1.74135,-0.296683 2.1987497,-0.642642 0.4574,-0.345959 1.1842,-0.629016 1.61511,-0.629016 1.31201,0 3.85994,-1.889325 6.22232,-4.613932 2.72086,-3.138052 5.0774,-4.384277 8.282,-4.379822 3.68831,0.0051 7.72197,0.788636 9.97233,1.937053 1.14101,0.582289 2.25643,1.058707 2.47869,1.058707 0.22226,0 0.79656,-0.915551 1.27623,-2.034558 1.36374,-3.181472 2.71578,-4.665065 4.98095,-5.465588 1.12332,-0.396988 2.88319,-1.016703 3.91082,-1.377145 1.6765,-0.588037 2.0008,-0.938249 3.15729,-3.4096107 1.05629,-2.257231 1.45359,-2.730686 2.20165,-2.623628 1.17739,0.168502 1.11454,1.496208 -0.23089,4.8782427 -1.07259,2.696178 -2.37533,3.750323 -6.06637,4.908768 -0.98282,0.308462 -2.23982,0.960868 -2.79333,1.449789 -1.96752,1.737957 -4.67773,8.389415 -4.12629,10.126856 0.41911,1.32048 -0.57787,3.705886 -2.57225,6.15444 -2.76266,3.391804 -2.92771,3.843102 -2.60464,7.121803 0.26832,2.722974 0.20768,3.019408 -1.02872,5.028817 -3.15491,5.12738 -7.29835,6.520353 -7.29835,2.45362 0,-1.983408 0.48232,-2.627104 2.14215,-2.858849 1.29988,-0.181491 1.28804,-1.143333 -0.05717,-4.645265 -0.7875,-2.050057 -3.35147,-5.113576 -4.29748,-5.134763 -0.38076,-0.0085 -2.8583,3.977594 -4.0954,6.589123 -0.54636,1.153353 -1.65635,3.000164 -2.46667,4.104026 -0.8103,1.103863 -1.66905,2.521921 -1.90832,3.151239 -0.38359,1.008927 -0.66583,1.14422 -2.38701,1.14422 -1.40474,0 -2.02669,-0.194725 -2.21851,-0.694585 z m 5.15906,-3.696803 c 1.30599,-1.943992 2.69189,-4.305702 3.07977,-5.248243 0.38788,-0.942542 1.37185,-2.725874 2.18661,-3.96296 1.74759,-2.653487 3.424306,-4.831036 5.892606,-3.056788 1.10521,0.794439 1.196704,3.752997 1.701164,5.17333 0.40253,1.133348 0.90382,2.060632 1.11399,2.060632 0.51749,0 -0.480157,-7.569089 0.136923,-9.016453 0.27349,-0.641476 5.000797,1.972152 6.066017,0.66435 2.0766,-2.549502 2.24725,-3.006671 2.4902,-6.670972 0.18414,-2.777329 2.91119,-9.037653 4.34205,-9.967778 0.49488,-0.321701 1.67096,-0.833025 2.6135,-1.136277 3.61769,-1.163947 4.93782,-2.103496 5.80804,-4.133654 1.17071,-2.7311387 1.01806,-2.8907567 -0.35559,-0.3718227 -1.11267,2.0403657 -1.323,2.1930267 -4.42713,3.2132097 -4.3684,1.435687 -4.96976,1.913467 -6.76655,5.375974 -0.92896,1.790168 -1.397485,3.665756 -1.877275,3.756658 -0.43803,0.08299 -3.709888,5.029534 -5.156938,4.298442 -1.82842,-0.923776 -2.443307,-7.5742 -4.905217,-7.879437 -5.28042,-0.654688 -1.645691,7.332786 -5.598121,11.481057 -3.20181,3.360451 -9.651678,-2.375712 -11.061468,-2.375712 -0.39929,0 -1.215531,-0.235798 -1.672931,0.110161 -0.4574,0.34596 -0.9290862,0.577498 -1.4709662,0.584992 -0.54189,0.0075 -1.9174335,0.374457 -2.6340035,0.745012 -0.9128,0.472027 -1.81786,0.586727 -3.02304,0.383114 l -1.72017,-0.290621 0.94325,0.943252 c 0.74802,0.748022 0.90679,1.311613 0.76708,2.722989 -0.18342,1.852857 0.83981,4.868728 1.97016,5.80683 0.48209,0.400099 0.87122,0.157264 1.96891,-1.228686 1.54086,-1.945496 4.1606137,-7.189866 7.1137837,-6.223934 2.45757,0.803831 0.262826,6.597968 -1.154044,9.52483 -0.49824,1.029236 -0.78743,1.989804 -0.64264,2.134596 0.14479,0.144791 0.26341,-0.0099 0.26359,-0.343682 5.7e-4,-1.032095 2.88248,-3.95641 3.62009,-3.673361 1.2269,0.470805 0.60042,4.441876 -0.78935,5.003494 -0.49673,0.200731 -0.66215,0.377188 -0.36761,0.392123 1.05758,0.05363 0.5062,1.881575 -0.99447,3.296887 -1.28065,1.207807 -1.39186,1.44298 -0.68238,1.44298 0.58418,0 1.58566,-1.098571 3.22216,-3.534532 z m 13.3911,2.392261 c 0.59921,-0.392611 1.81941,-1.812799 2.71157,-3.155972 1.39568,-2.101243 1.58531,-2.668552 1.35846,-4.064152 -0.23405,-1.439927 -0.32917,-1.543073 -0.84726,-0.918808 -0.32099,0.386764 -0.73271,0.611056 -0.91495,0.498428 -0.18224,-0.112629 -0.59417,0.130484 -0.91542,0.540252 -0.52855,0.674203 -0.5128,0.689132 0.16567,0.157038 0.91161,-0.714933 1.01371,0.04979 0.10711,0.802208 -0.35346,0.29334 -0.64264,1.145955 -0.64264,1.894697 0,1.609831 -0.65708,2.389583 -2.01362,2.389583 -0.56502,0 -0.98538,0.259204 -0.98538,0.607601 0,0.334183 -0.11702,0.912561 -0.26005,1.285284 -0.34837,0.907839 0.82474,0.888873 2.23651,-0.03616 z M 16.24852,41.356707 c 0.13542,-0.698808 0.06321,-0.730273 -0.53553,-0.23336 -0.81884,0.679573 -0.92079,1.473859 -0.15652,1.219388 0.29454,-0.09807 0.60596,-0.541784 0.69205,-0.986028 z m 17.83746,-2.762918 c 0.4265,-0.47127 0.67905,-0.856856 0.56123,-0.856856 -0.11782,0 -0.56316,0.385586 -0.98966,0.856856 -0.42649,0.471271 -0.67905,0.856857 -0.56123,0.856857 0.11782,0 0.56316,-0.385586 0.98966,-0.856857 z"
       id="path2396" />
  </g>
</svg>
